{
  "source": "C:\\Users\\Peter\\Desktop\\stuff\\MIUN\\quantitative_research\\video_compression\\videos\\BVI-HD\\BVI-HD_CDVL_videos\\ORIG\\ParkPlay_1920x1080_50fps.mp4",
  "output": "C:\\Users\\Peter\\Desktop\\stuff\\MIUN\\quantitative_research\\video_compression\\compressed_videos\\BVI-HD\\hevc\\2.5\\ParkPlay_1920x1080_50fps_hevc.mp4",
  "codec": "hevc",
  "ok": "Input #0, mov,mp4,m4a,3gp,3g2,mj2, from 'C:\\Users\\Peter\\Desktop\\stuff\\MIUN\\quantitative_research\\video_compression\\videos\\BVI-HD\\BVI-HD_CDVL_videos\\ORIG\\ParkPlay_1920x1080_50fps.mp4':\n  Metadata:\n    major_brand     : isom\n    minor_version   : 512\n    compatible_brands: isomiso2avc1mp41\n    encoder         : Lavf54.28.101\n  Duration: 00:00:05.00, start: 0.000000, bitrate: 620563 kb/s\n  Stream #0:0[0x1](und): Video: h264 (High 4:4:4 Predictive) (avc1 / 0x31637661), yuv420p(progressive), 1920x1080, 620558 kb/s, 50 fps, 50 tbr, 50 tbn (default)\n    Metadata:\n      handler_name    : VideoHandler\n      vendor_id       : [0][0][0][0]\n[out#0/mp4 @ 000001e604a07d80] Codec AVOption b:a (set bitrate (in bits/s)) has not been used for any stream. The most likely reason is either wrong type (e.g. a video option with no video streams) or that it is a private option of some decoder which was not actually used for any stream.\nStream mapping:\n  Stream #0:0 -> #0:0 (h264 (native) -> hevc (libx265))\nPress [q] to stop, [?] for help\n[libx265 @ 000001e605590b40] Unknown option: \"aq-mode.\nx265 [info]: HEVC encoder version 4.1+190-8f11c33ac\nx265 [info]: build info [Windows][GCC 15.1.0][64 bit] 10bit\nx265 [info]: using cpu capabilities: MMX2 SSE2Fast LZCNT SSSE3 SSE4.2 AVX FMA3 BMI2 AVX2\nx265 [info]: Main 10 profile, Level-4.1 (Main tier)\nx265 [info]: Thread pool created using 12 threads\nx265 [info]: Slices                              : 1\nx265 [info]: frame threads / pool features       : 3 / wpp(17 rows)\nx265 [info]: Coding QT: max CU size, min CU size : 64 / 8\nx265 [info]: Residual QT: max TU size, max depth : 32 / 1 inter / 1 intra\nx265 [info]: ME / range / subpel / merge         : star / 57 / 3 / 3\nx265 [info]: Keyframe min / max / scenecut / bias  : 25 / 250 / 40 / 5.00 \nx265 [info]: Lookahead / bframes / badapt        : 25 / 4 / 2\nx265 [info]: b-pyramid / weightp / weightb       : 1 / 1 / 0\nx265 [info]: References / ref-limit  cu / depth  : 4 / on / on\nx265 [info]: AQ: mode / str / qg-size / cu-tree  : 2 / 1.0 / 32 / 1\nx265 [info]: Rate Control / qCompress            : ABR-2500 kbps / 0.60\nx265 [info]: VBV/HRD buffer / max-rate / init    : 2500 / 2500 / 0.750\nx265 [info]: tools: rect limit-modes rd=4 psy-rd=2.00 rdoq=2 psy-rdoq=1.00\nx265 [info]: tools: rskip mode=1 signhide tmvp strong-intra-smoothing lslices=4\nx265 [info]: tools: deblock sao dhdr10-info\nOutput #0, mp4, to 'C:\\Users\\Peter\\Desktop\\stuff\\MIUN\\quantitative_research\\video_compression\\compressed_videos\\BVI-HD\\hevc\\2.5\\ParkPlay_1920x1080_50fps_hevc.mp4':\n  Metadata:\n    major_brand     : isom\n    minor_version   : 512\n    compatible_brands: isomiso2avc1mp41\n    encoder         : Lavf62.3.100\n  Stream #0:0(und): Video: hevc (hev1 / 0x31766568), yuv420p10le(tv, progressive), 1920x1080, q=2-31, 2500 kb/s, 50 fps, 12800 tbn (default)\n    Metadata:\n      encoder         : Lavc62.11.100 libx265\n      handler_name    : VideoHandler\n      vendor_id       : [0][0][0][0]\n    Side data:\n      cpb: bitrate max/min/avg: 2500000/0/2500000 buffer size: 2500000 vbv_delay: N/A\nframe=    0 fps=0.0 q=0.0 size=       0KiB time=N/A bitrate=N/A speed=N/A elapsed=0:00:01.17    \nframe=    0 fps=0.0 q=0.0 size=       0KiB time=N/A bitrate=N/A speed=N/A elapsed=0:00:01.72    \nframe=    0 fps=0.0 q=0.0 size=       0KiB time=N/A bitrate=N/A speed=N/A elapsed=0:00:02.28    \nframe=    0 fps=0.0 q=0.0 size=       0KiB time=N/A bitrate=N/A speed=N/A elapsed=0:00:02.80    \nframe=    0 fps=0.0 q=0.0 size=       0KiB time=N/A bitrate=N/A speed=N/A elapsed=0:00:03.32    \nframe=    0 fps=0.0 q=0.0 size=       0KiB time=N/A bitrate=N/A speed=N/A elapsed=0:00:03.84    \nframe=    0 fps=0.0 q=0.0 size=       0KiB time=N/A bitrate=N/A speed=N/A elapsed=0:00:04.36    \nframe=    0 fps=0.0 q=0.0 size=       0KiB time=N/A bitrate=N/A speed=N/A elapsed=0:00:04.90    \nframe=    0 fps=0.0 q=0.0 size=       0KiB time=N/A bitrate=N/A speed=N/A elapsed=0:00:05.40    \nframe=    0 fps=0.0 q=0.0 size=       0KiB time=N/A bitrate=N/A speed=N/A elapsed=0:00:05.93    \nframe=    0 fps=0.0 q=0.0 size=       0KiB time=N/A bitrate=N/A speed=N/A elapsed=0:00:06.45    \nframe=    0 fps=0.0 q=0.0 size=       0KiB time=N/A bitrate=N/A speed=N/A elapsed=0:00:06.98    \nframe=    0 fps=0.0 q=0.0 size=       0KiB time=N/A bitrate=N/A speed=N/A elapsed=0:00:07.50    \nframe=    0 fps=0.0 q=0.0 size=       0KiB time=N/A bitrate=N/A speed=N/A elapsed=0:00:08.04    \nframe=    0 fps=0.0 q=0.0 size=       0KiB time=N/A bitrate=N/A speed=N/A elapsed=0:00:08.56    \nframe=    1 fps=0.1 q=42.3 size=       0KiB time=-00:00:00.02 bitrate=N/A speed=N/A elapsed=0:00:09.08    \nframe=    1 fps=0.1 q=42.3 size=       0KiB time=-00:00:00.02 bitrate=N/A speed=N/A elapsed=0:00:09.62    \nframe=    2 fps=0.2 q=47.3 size=       0KiB time=00:00:00.00 bitrate=N/A speed=   0x elapsed=0:00:10.19    \nframe=    3 fps=0.3 q=49.1 size=       0KiB time=00:00:00.02 bitrate=  17.6kbits/s speed=0.00187x elapsed=0:00:10.71    \nframe=    3 fps=0.3 q=49.1 size=       0KiB time=00:00:00.02 bitrate=  17.6kbits/s speed=0.00178x elapsed=0:00:11.24    \nframe=    3 fps=0.3 q=49.1 size=       0KiB time=00:00:00.02 bitrate=  17.6kbits/s speed=0.0017x elapsed=0:00:11.75    \nframe=    4 fps=0.3 q=50.8 size=       0KiB time=00:00:00.04 bitrate=   8.8kbits/s speed=0.00325x elapsed=0:00:12.29    \nframe=    4 fps=0.3 q=50.8 size=       0KiB time=00:00:00.04 bitrate=   8.8kbits/s speed=0.00312x elapsed=0:00:12.83    \nframe=    5 fps=0.4 q=48.8 size=       0KiB time=00:00:00.06 bitrate=   5.9kbits/s speed=0.00449x elapsed=0:00:13.36    \nframe=    5 fps=0.4 q=48.8 size=       0KiB time=00:00:00.06 bitrate=   5.9kbits/s speed=0.00432x elapsed=0:00:13.89    \nframe=    5 fps=0.3 q=48.8 size=       0KiB time=00:00:00.06 bitrate=   5.9kbits/s speed=0.00416x elapsed=0:00:14.41    \nframe=    6 fps=0.4 q=42.9 size=       0KiB time=00:00:00.08 bitrate=   4.4kbits/s speed=0.00535x elapsed=0:00:14.94    \nframe=    6 fps=0.4 q=42.9 size=       0KiB time=00:00:00.08 bitrate=   4.4kbits/s speed=0.00515x elapsed=0:00:15.52    \nframe=    6 fps=0.4 q=42.9 size=       0KiB time=00:00:00.08 bitrate=   4.4kbits/s speed=0.00498x elapsed=0:00:16.05    \nframe=    6 fps=0.4 q=42.9 size=       0KiB time=00:00:00.08 bitrate=   4.4kbits/s speed=0.00481x elapsed=0:00:16.61    \nframe=    6 fps=0.3 q=42.9 size=       0KiB time=00:00:00.08 bitrate=   4.4kbits/s speed=0.00465x elapsed=0:00:17.19    \nframe=    6 fps=0.3 q=42.9 size=       0KiB time=00:00:00.08 bitrate=   4.4kbits/s speed=0.00449x elapsed=0:00:17.80    \nframe=    6 fps=0.3 q=42.9 size=       0KiB time=00:00:00.08 bitrate=   4.4kbits/s speed=0.00434x elapsed=0:00:18.43    \nframe=    6 fps=0.3 q=42.9 size=       0KiB time=00:00:00.08 bitrate=   4.4kbits/s speed=0.00418x elapsed=0:00:19.12    \nframe=    7 fps=0.4 q=46.2 size=       0KiB time=00:00:00.10 bitrate=   3.5kbits/s speed=0.00508x elapsed=0:00:19.68    \nframe=    7 fps=0.3 q=46.2 size=       0KiB time=00:00:00.10 bitrate=   3.5kbits/s speed=0.00495x elapsed=0:00:20.21    \nframe=    7 fps=0.3 q=46.2 size=       0KiB time=00:00:00.10 bitrate=   3.5kbits/s speed=0.00482x elapsed=0:00:20.75    \nframe=    7 fps=0.3 q=46.2 size=       0KiB time=00:00:00.10 bitrate=   3.5kbits/s speed=0.0047x elapsed=0:00:21.28    \nframe=    8 fps=0.4 q=47.1 size=       0KiB time=00:00:00.12 bitrate=   2.9kbits/s speed=0.0055x elapsed=0:00:21.83    \nframe=    8 fps=0.4 q=47.1 size=       0KiB time=00:00:00.12 bitrate=   2.9kbits/s speed=0.00536x elapsed=0:00:22.37    \nframe=    8 fps=0.3 q=47.1 size=       0KiB time=00:00:00.12 bitrate=   2.9kbits/s speed=0.00524x elapsed=0:00:22.91    \nframe=    8 fps=0.3 q=47.1 size=       0KiB time=00:00:00.12 bitrate=   2.9kbits/s speed=0.00511x elapsed=0:00:23.46    \nframe=    9 fps=0.4 q=46.6 size=       0KiB time=00:00:00.14 bitrate=   2.5kbits/s speed=0.00582x elapsed=0:00:24.04    \nframe=    9 fps=0.4 q=46.6 size=       0KiB time=00:00:00.14 bitrate=   2.5kbits/s speed=0.0057x elapsed=0:00:24.56    \nframe=    9 fps=0.4 q=46.6 size=       0KiB time=00:00:00.14 bitrate=   2.5kbits/s speed=0.00557x elapsed=0:00:25.11    \nframe=    9 fps=0.4 q=46.6 size=       0KiB time=00:00:00.14 bitrate=   2.5kbits/s speed=0.00545x elapsed=0:00:25.69    \nframe=    9 fps=0.3 q=46.6 size=       0KiB time=00:00:00.14 bitrate=   2.5kbits/s speed=0.00533x elapsed=0:00:26.26    \nframe=   10 fps=0.4 q=41.3 size=       0KiB time=00:00:00.16 bitrate=   2.2kbits/s speed=0.00596x elapsed=0:00:26.85    \nframe=   10 fps=0.4 q=41.3 size=       0KiB time=00:00:00.16 bitrate=   2.2kbits/s speed=0.00584x elapsed=0:00:27.41    \nframe=   10 fps=0.4 q=41.3 size=       0KiB time=00:00:00.16 bitrate=   2.2kbits/s speed=0.00572x elapsed=0:00:27.97    \nframe=   10 fps=0.3 q=41.3 size=       0KiB time=00:00:00.16 bitrate=   2.2kbits/s speed=0.0056x elapsed=0:00:28.59    \nframe=   10 fps=0.3 q=41.3 size=       0KiB time=00:00:00.16 bitrate=   2.2kbits/s speed=0.00548x elapsed=0:00:29.19    \nframe=   10 fps=0.3 q=41.3 size=       0KiB time=00:00:00.16 bitrate=   2.2kbits/s speed=0.00537x elapsed=0:00:29.78    \nframe=   10 fps=0.3 q=41.3 size=       0KiB time=00:00:00.16 bitrate=   2.2kbits/s speed=0.00527x elapsed=0:00:30.33    \nframe=   10 fps=0.3 q=41.3 size=       0KiB time=00:00:00.16 bitrate=   2.2kbits/s speed=0.00518x elapsed=0:00:30.91    \nframe=   11 fps=0.3 q=43.8 size=       0KiB time=00:00:00.18 bitrate=   2.0kbits/s speed=0.00573x elapsed=0:00:31.43    \nframe=   11 fps=0.3 q=43.8 size=       0KiB time=00:00:00.18 bitrate=   2.0kbits/s speed=0.00563x elapsed=0:00:31.96    \nframe=   11 fps=0.3 q=43.8 size=       0KiB time=00:00:00.18 bitrate=   2.0kbits/s speed=0.00553x elapsed=0:00:32.54    \nframe=   11 fps=0.3 q=43.8 size=       0KiB time=00:00:00.18 bitrate=   2.0kbits/s speed=0.00542x elapsed=0:00:33.18    \nframe=   11 fps=0.3 q=43.8 size=       0KiB time=00:00:00.18 bitrate=   2.0kbits/s speed=0.00533x elapsed=0:00:33.74    \nframe=   11 fps=0.3 q=43.8 size=       0KiB time=00:00:00.18 bitrate=   2.0kbits/s speed=0.00525x elapsed=0:00:34.30    \nframe=   11 fps=0.3 q=43.8 size=       0KiB time=00:00:00.18 bitrate=   2.0kbits/s speed=0.00516x elapsed=0:00:34.85    \nframe=   11 fps=0.3 q=43.8 size=       0KiB time=00:00:00.18 bitrate=   2.0kbits/s speed=0.00509x elapsed=0:00:35.39    \nframe=   12 fps=0.3 q=46.0 size=       0KiB time=00:00:00.20 bitrate=   1.8kbits/s speed=0.00556x elapsed=0:00:35.94    \nframe=   12 fps=0.3 q=46.0 size=       0KiB time=00:00:00.20 bitrate=   1.8kbits/s speed=0.00547x elapsed=0:00:36.57    \nframe=   12 fps=0.3 q=46.0 size=       0KiB time=00:00:00.20 bitrate=   1.8kbits/s speed=0.00539x elapsed=0:00:37.12    \nframe=   12 fps=0.3 q=46.0 size=       0KiB time=00:00:00.20 bitrate=   1.8kbits/s speed=0.0053x elapsed=0:00:37.75    \nframe=   12 fps=0.3 q=46.0 size=       0KiB time=00:00:00.20 bitrate=   1.8kbits/s speed=0.00522x elapsed=0:00:38.31    \nframe=   12 fps=0.3 q=46.0 size=       0KiB time=00:00:00.20 bitrate=   1.8kbits/s speed=0.00514x elapsed=0:00:38.89    \nframe=   12 fps=0.3 q=46.0 size=       0KiB time=00:00:00.20 bitrate=   1.8kbits/s speed=0.00507x elapsed=0:00:39.46    \nframe=   12 fps=0.3 q=46.0 size=       0KiB time=00:00:00.20 bitrate=   1.8kbits/s speed=0.00499x elapsed=0:00:40.04    \nframe=   12 fps=0.3 q=46.0 size=       0KiB time=00:00:00.20 bitrate=   1.8kbits/s speed=0.00492x elapsed=0:00:40.64    \nframe=   12 fps=0.3 q=46.0 size=       0KiB time=00:00:00.20 bitrate=   1.8kbits/s speed=0.00485x elapsed=0:00:41.21    \nframe=   12 fps=0.3 q=46.0 size=       0KiB time=00:00:00.20 bitrate=   1.8kbits/s speed=0.00479x elapsed=0:00:41.79    \nframe=   12 fps=0.3 q=46.0 size=       0KiB time=00:00:00.20 bitrate=   1.8kbits/s speed=0.00472x elapsed=0:00:42.33    \nframe=   12 fps=0.3 q=46.0 size=       0KiB time=00:00:00.20 bitrate=   1.8kbits/s speed=0.00466x elapsed=0:00:42.95    \nframe=   12 fps=0.3 q=46.0 size=       0KiB time=00:00:00.20 bitrate=   1.8kbits/s speed=0.00459x elapsed=0:00:43.55    \nframe=   13 fps=0.3 q=45.4 size=       0KiB time=00:00:00.22 bitrate=   1.6kbits/s speed=0.00499x elapsed=0:00:44.10    \nframe=   13 fps=0.3 q=45.4 size=       0KiB time=00:00:00.22 bitrate=   1.6kbits/s speed=0.00492x elapsed=0:00:44.68    \nframe=   13 fps=0.3 q=45.4 size=       0KiB time=00:00:00.22 bitrate=   1.6kbits/s speed=0.00486x elapsed=0:00:45.22    \nframe=   13 fps=0.3 q=45.4 size=       0KiB time=00:00:00.22 bitrate=   1.6kbits/s speed=0.00481x elapsed=0:00:45.78    \nframe=   13 fps=0.3 q=45.4 size=       0KiB time=00:00:00.22 bitrate=   1.6kbits/s speed=0.00475x elapsed=0:00:46.33    \nframe=   13 fps=0.3 q=45.4 size=       0KiB time=00:00:00.22 bitrate=   1.6kbits/s speed=0.00469x elapsed=0:00:46.87    \nframe=   14 fps=0.3 q=41.2 size=       0KiB time=00:00:00.24 bitrate=   1.5kbits/s speed=0.00506x elapsed=0:00:47.40    \nframe=   14 fps=0.3 q=41.2 size=       0KiB time=00:00:00.24 bitrate=   1.5kbits/s speed=0.00501x elapsed=0:00:47.95    \nframe=   14 fps=0.3 q=41.2 size=       0KiB time=00:00:00.24 bitrate=   1.5kbits/s speed=0.00495x elapsed=0:00:48.50    \nframe=   14 fps=0.3 q=41.2 size=       0KiB time=00:00:00.24 bitrate=   1.5kbits/s speed=0.00489x elapsed=0:00:49.04    \nframe=   14 fps=0.3 q=41.2 size=       0KiB time=00:00:00.24 bitrate=   1.5kbits/s speed=0.00484x elapsed=0:00:49.61    \nframe=   14 fps=0.3 q=41.2 size=       0KiB time=00:00:00.24 bitrate=   1.5kbits/s speed=0.00479x elapsed=0:00:50.14    \nframe=   14 fps=0.3 q=41.2 size=       0KiB time=00:00:00.24 bitrate=   1.5kbits/s speed=0.00474x elapsed=0:00:50.68    \nframe=   14 fps=0.3 q=41.2 size=       0KiB time=00:00:00.24 bitrate=   1.5kbits/s speed=0.00468x elapsed=0:00:51.27    \nframe=   14 fps=0.3 q=41.2 size=       0KiB time=00:00:00.24 bitrate=   1.5kbits/s speed=0.00463x elapsed=0:00:51.80    \nframe=   15 fps=0.3 q=43.5 size=       0KiB time=00:00:00.26 bitrate=   1.4kbits/s speed=0.00496x elapsed=0:00:52.45    \nframe=   15 fps=0.3 q=43.5 size=       0KiB time=00:00:00.26 bitrate=   1.4kbits/s speed=0.0049x elapsed=0:00:53.02    \nframe=   15 fps=0.3 q=43.5 size=       0KiB time=00:00:00.26 bitrate=   1.4kbits/s speed=0.00485x elapsed=0:00:53.56    \nframe=   15 fps=0.3 q=43.5 size=       0KiB time=00:00:00.26 bitrate=   1.4kbits/s speed=0.0048x elapsed=0:00:54.15    \nframe=   15 fps=0.3 q=43.5 size=       0KiB time=00:00:00.26 bitrate=   1.4kbits/s speed=0.00475x elapsed=0:00:54.70    \nframe=   15 fps=0.3 q=43.5 size=       0KiB time=00:00:00.26 bitrate=   1.4kbits/s speed=0.00471x elapsed=0:00:55.23    \nframe=   15 fps=0.3 q=43.5 size=       0KiB time=00:00:00.26 bitrate=   1.4kbits/s speed=0.00466x elapsed=0:00:55.79    \nframe=   15 fps=0.3 q=43.5 size=       0KiB time=00:00:00.26 bitrate=   1.4kbits/s speed=0.00461x elapsed=0:00:56.37    \nframe=   15 fps=0.3 q=43.5 size=       0KiB time=00:00:00.26 bitrate=   1.4kbits/s speed=0.00457x elapsed=0:00:56.91    \nframe=   15 fps=0.3 q=43.5 size=       0KiB time=00:00:00.26 bitrate=   1.4kbits/s speed=0.00452x elapsed=0:00:57.48    \nframe=   15 fps=0.3 q=43.5 size=       0KiB time=00:00:00.26 bitrate=   1.4kbits/s speed=0.00448x elapsed=0:00:58.05    \nframe=   15 fps=0.3 q=43.5 size=       0KiB time=00:00:00.26 bitrate=   1.4kbits/s speed=0.00444x elapsed=0:00:58.59    \nframe=   15 fps=0.3 q=43.5 size=       0KiB time=00:00:00.26 bitrate=   1.4kbits/s speed=0.0044x elapsed=0:00:59.14    \nframe=   15 fps=0.3 q=43.5 size=       0KiB time=00:00:00.26 bitrate=   1.4kbits/s speed=0.00436x elapsed=0:00:59.67    \nframe=   15 fps=0.2 q=43.5 size=       0KiB time=00:00:00.26 bitrate=   1.4kbits/s speed=0.00432x elapsed=0:01:00.22    \nframe=   15 fps=0.2 q=43.5 size=       0KiB time=00:00:00.26 bitrate=   1.4kbits/s speed=0.00428x elapsed=0:01:00.78    \nframe=   16 fps=0.3 q=45.5 size=       0KiB time=00:00:00.28 bitrate=   1.3kbits/s speed=0.00456x elapsed=0:01:01.33    \nframe=   16 fps=0.3 q=45.5 size=       0KiB time=00:00:00.28 bitrate=   1.3kbits/s speed=0.00452x elapsed=0:01:01.93    \nframe=   16 fps=0.3 q=45.5 size=       0KiB time=00:00:00.28 bitrate=   1.3kbits/s speed=0.00448x elapsed=0:01:02.49    \nframe=   16 fps=0.3 q=45.5 size=       0KiB time=00:00:00.28 bitrate=   1.3kbits/s speed=0.00444x elapsed=0:01:03.10    \nframe=   16 fps=0.3 q=45.5 size=       0KiB time=00:00:00.28 bitrate=   1.3kbits/s speed=0.00439x elapsed=0:01:03.72    \nframe=   16 fps=0.2 q=45.5 size=       0KiB time=00:00:00.28 bitrate=   1.3kbits/s speed=0.00435x elapsed=0:01:04.33    \nframe=   16 fps=0.2 q=45.5 size=       0KiB time=00:00:00.28 bitrate=   1.3kbits/s speed=0.00431x elapsed=0:01:04.90    \nframe=   16 fps=0.2 q=45.5 size=       0KiB time=00:00:00.28 bitrate=   1.3kbits/s speed=0.00428x elapsed=0:01:05.45    \nframe=   16 fps=0.2 q=45.5 size=       0KiB time=00:00:00.28 bitrate=   1.3kbits/s speed=0.00424x elapsed=0:01:05.99    \nframe=   16 fps=0.2 q=45.5 size=       0KiB time=00:00:00.28 bitrate=   1.3kbits/s speed=0.00421x elapsed=0:01:06.57    \nframe=   16 fps=0.2 q=45.5 size=       0KiB time=00:00:00.28 bitrate=   1.3kbits/s speed=0.00417x elapsed=0:01:07.16    \nframe=   17 fps=0.3 q=45.4 size=       0KiB time=00:00:00.30 bitrate=   1.2kbits/s speed=0.00443x elapsed=0:01:07.79    \nframe=   17 fps=0.2 q=45.4 size=       0KiB time=00:00:00.30 bitrate=   1.2kbits/s speed=0.00439x elapsed=0:01:08.33    \nframe=   18 fps=0.3 q=41.1 size=       0KiB time=00:00:00.32 bitrate=   1.1kbits/s speed=0.00465x elapsed=0:01:08.86    \nframe=   18 fps=0.3 q=41.1 size=       0KiB time=00:00:00.32 bitrate=   1.1kbits/s speed=0.00461x elapsed=0:01:09.39    \nframe=   18 fps=0.3 q=41.1 size=       0KiB time=00:00:00.32 bitrate=   1.1kbits/s speed=0.00458x elapsed=0:01:09.92    \nframe=   19 fps=0.3 q=43.3 size=       0KiB time=00:00:00.34 bitrate=   1.0kbits/s speed=0.00483x elapsed=0:01:10.45    \nframe=   19 fps=0.3 q=43.3 size=       0KiB time=00:00:00.34 bitrate=   1.0kbits/s speed=0.00479x elapsed=0:01:10.97    \nframe=   19 fps=0.3 q=43.3 size=       0KiB time=00:00:00.34 bitrate=   1.0kbits/s speed=0.00475x elapsed=0:01:11.53    \nframe=   19 fps=0.3 q=43.3 size=       0KiB time=00:00:00.34 bitrate=   1.0kbits/s speed=0.00472x elapsed=0:01:12.04    \nframe=   20 fps=0.3 q=45.3 size=       0KiB time=00:00:00.36 bitrate=   1.0kbits/s speed=0.00496x elapsed=0:01:12.56    \nframe=   20 fps=0.3 q=45.3 size=       0KiB time=00:00:00.36 bitrate=   1.0kbits/s speed=0.00493x elapsed=0:01:13.09    \nframe=   20 fps=0.3 q=45.3 size=       0KiB time=00:00:00.36 bitrate=   1.0kbits/s speed=0.00489x elapsed=0:01:13.60    \nframe=   21 fps=0.3 q=45.2 size=       0KiB time=00:00:00.38 bitrate=   0.9kbits/s speed=0.00512x elapsed=0:01:14.15    \nframe=   21 fps=0.3 q=45.2 size=       0KiB time=00:00:00.38 bitrate=   0.9kbits/s speed=0.00509x elapsed=0:01:14.68    \nframe=   21 fps=0.3 q=45.2 size=       0KiB time=00:00:00.38 bitrate=   0.9kbits/s speed=0.00505x elapsed=0:01:15.20    \nframe=   22 fps=0.3 q=40.9 size=       0KiB time=00:00:00.40 bitrate=   0.9kbits/s speed=0.00528x elapsed=0:01:15.72    \nframe=   22 fps=0.3 q=40.9 size=       0KiB time=00:00:00.40 bitrate=   0.9kbits/s speed=0.00525x elapsed=0:01:16.25    \nframe=   23 fps=0.3 q=43.3 size=       0KiB time=00:00:00.42 bitrate=   0.8kbits/s speed=0.00547x elapsed=0:01:16.77    \nframe=   23 fps=0.3 q=43.3 size=       0KiB time=00:00:00.42 bitrate=   0.8kbits/s speed=0.00543x elapsed=0:01:17.29    \nframe=   23 fps=0.3 q=43.3 size=       0KiB time=00:00:00.42 bitrate=   0.8kbits/s speed=0.0054x elapsed=0:01:17.81    \nframe=   23 fps=0.3 q=43.3 size=       0KiB time=00:00:00.42 bitrate=   0.8kbits/s speed=0.00536x elapsed=0:01:18.34    \nframe=   23 fps=0.3 q=43.3 size=       0KiB time=00:00:00.42 bitrate=   0.8kbits/s speed=0.00532x elapsed=0:01:18.87    \nframe=   23 fps=0.3 q=43.3 size=       0KiB time=00:00:00.42 bitrate=   0.8kbits/s speed=0.00529x elapsed=0:01:19.40    \nframe=   24 fps=0.3 q=45.2 size=       0KiB time=00:00:00.44 bitrate=   0.8kbits/s speed=0.0055x elapsed=0:01:19.95    \nframe=   24 fps=0.3 q=45.2 size=       0KiB time=00:00:00.44 bitrate=   0.8kbits/s speed=0.00547x elapsed=0:01:20.47    \nframe=   25 fps=0.3 q=45.1 size=       0KiB time=00:00:00.46 bitrate=   0.8kbits/s speed=0.00568x elapsed=0:01:20.99    \nframe=   25 fps=0.3 q=45.1 size=       0KiB time=00:00:00.46 bitrate=   0.8kbits/s speed=0.00564x elapsed=0:01:21.51    \nframe=   25 fps=0.3 q=45.1 size=       0KiB time=00:00:00.46 bitrate=   0.8kbits/s speed=0.00561x elapsed=0:01:22.04    \nframe=   26 fps=0.3 q=41.2 size=       0KiB time=00:00:00.48 bitrate=   0.7kbits/s speed=0.00581x elapsed=0:01:22.58    \nframe=   26 fps=0.3 q=41.2 size=       0KiB time=00:00:00.48 bitrate=   0.7kbits/s speed=0.00578x elapsed=0:01:23.11    \nframe=   26 fps=0.3 q=41.2 size=       0KiB time=00:00:00.48 bitrate=   0.7kbits/s speed=0.00574x elapsed=0:01:23.65    \nframe=   27 fps=0.3 q=43.3 size=       0KiB time=00:00:00.50 bitrate=   0.7kbits/s speed=0.00594x elapsed=0:01:24.17    \nframe=   27 fps=0.3 q=43.3 size=       0KiB time=00:00:00.50 bitrate=   0.7kbits/s speed=0.0059x elapsed=0:01:24.69    \nframe=   27 fps=0.3 q=43.3 size=       0KiB time=00:00:00.50 bitrate=   0.7kbits/s speed=0.00587x elapsed=0:01:25.21    \nframe=   27 fps=0.3 q=43.3 size=       0KiB time=00:00:00.50 bitrate=   0.7kbits/s speed=0.00583x elapsed=0:01:25.74    \nframe=   27 fps=0.3 q=43.3 size=       0KiB time=00:00:00.50 bitrate=   0.7kbits/s speed=0.00579x elapsed=0:01:26.28    \nframe=   27 fps=0.3 q=43.3 size=       0KiB time=00:00:00.50 bitrate=   0.7kbits/s speed=0.00576x elapsed=0:01:26.81    \nframe=   28 fps=0.3 q=45.1 size=       0KiB time=00:00:00.52 bitrate=   0.7kbits/s speed=0.00595x elapsed=0:01:27.33    \nframe=   28 fps=0.3 q=45.1 size=       0KiB time=00:00:00.52 bitrate=   0.7kbits/s speed=0.00592x elapsed=0:01:27.84    \nframe=   28 fps=0.3 q=45.1 size=       0KiB time=00:00:00.52 bitrate=   0.7kbits/s speed=0.00588x elapsed=0:01:28.38    \nframe=   28 fps=0.3 q=45.1 size=       0KiB time=00:00:00.52 bitrate=   0.7kbits/s speed=0.00585x elapsed=0:01:28.94    \nframe=   28 fps=0.3 q=45.1 size=       0KiB time=00:00:00.52 bitrate=   0.7kbits/s speed=0.00581x elapsed=0:01:29.45    \nframe=   29 fps=0.3 q=45.2 size=       0KiB time=00:00:00.54 bitrate=   0.7kbits/s speed=0.006x elapsed=0:01:30.00    \nframe=   29 fps=0.3 q=45.2 size=       0KiB time=00:00:00.54 bitrate=   0.7kbits/s speed=0.00596x elapsed=0:01:30.54    \nframe=   29 fps=0.3 q=45.2 size=       0KiB time=00:00:00.54 bitrate=   0.7kbits/s speed=0.00593x elapsed=0:01:31.07    \nframe=   30 fps=0.3 q=41.3 size=       0KiB time=00:00:00.56 bitrate=   0.6kbits/s speed=0.00611x elapsed=0:01:31.59    \nframe=   30 fps=0.3 q=41.3 size=       0KiB time=00:00:00.56 bitrate=   0.6kbits/s speed=0.00608x elapsed=0:01:32.13    \nframe=   30 fps=0.3 q=41.3 size=       0KiB time=00:00:00.56 bitrate=   0.6kbits/s speed=0.00604x elapsed=0:01:32.64    \nframe=   30 fps=0.3 q=41.3 size=       0KiB time=00:00:00.56 bitrate=   0.6kbits/s speed=0.00601x elapsed=0:01:33.17    \nframe=   31 fps=0.3 q=43.5 size=       0KiB time=00:00:00.58 bitrate=   0.6kbits/s speed=0.00619x elapsed=0:01:33.70    \nframe=   31 fps=0.3 q=43.5 size=       0KiB time=00:00:00.58 bitrate=   0.6kbits/s speed=0.00616x elapsed=0:01:34.22    \nframe=   31 fps=0.3 q=43.5 size=       0KiB time=00:00:00.58 bitrate=   0.6kbits/s speed=0.00612x elapsed=0:01:34.74    \nframe=   31 fps=0.3 q=43.5 size=       0KiB time=00:00:00.58 bitrate=   0.6kbits/s speed=0.00609x elapsed=0:01:35.26    \nframe=   32 fps=0.3 q=45.4 size=       0KiB time=00:00:00.60 bitrate=   0.6kbits/s speed=0.00626x elapsed=0:01:35.81    \nframe=   32 fps=0.3 q=45.4 size=       0KiB time=00:00:00.60 bitrate=   0.6kbits/s speed=0.00623x elapsed=0:01:36.34    \nframe=   32 fps=0.3 q=45.4 size=       0KiB time=00:00:00.60 bitrate=   0.6kbits/s speed=0.00619x elapsed=0:01:36.89    \nframe=   32 fps=0.3 q=45.4 size=       0KiB time=00:00:00.60 bitrate=   0.6kbits/s speed=0.00616x elapsed=0:01:37.41    \nframe=   33 fps=0.3 q=45.4 size=       0KiB time=00:00:00.62 bitrate=   0.6kbits/s speed=0.00633x elapsed=0:01:37.96    \nframe=   33 fps=0.3 q=45.4 size=       0KiB time=00:00:00.62 bitrate=   0.6kbits/s speed=0.0063x elapsed=0:01:38.47    \nframe=   33 fps=0.3 q=45.4 size=       0KiB time=00:00:00.62 bitrate=   0.6kbits/s speed=0.00626x elapsed=0:01:39.00    \nframe=   34 fps=0.3 q=41.2 size=       0KiB time=00:00:00.64 bitrate=   0.6kbits/s speed=0.00643x elapsed=0:01:39.52    \nframe=   35 fps=0.3 q=43.3 size=       0KiB time=00:00:00.66 bitrate=   0.5kbits/s speed=0.0066x elapsed=0:01:40.05    \nframe=   35 fps=0.3 q=43.3 size=       0KiB time=00:00:00.66 bitrate=   0.5kbits/s speed=0.00656x elapsed=0:01:40.58    \nframe=   35 fps=0.3 q=43.3 size=       0KiB time=00:00:00.66 bitrate=   0.5kbits/s speed=0.00653x elapsed=0:01:41.10    \nframe=   35 fps=0.3 q=43.3 size=       0KiB time=00:00:00.66 bitrate=   0.5kbits/s speed=0.00649x elapsed=0:01:41.61    \nframe=   35 fps=0.3 q=43.3 size=       0KiB time=00:00:00.66 bitrate=   0.5kbits/s speed=0.00646x elapsed=0:01:42.14    \nframe=   36 fps=0.4 q=45.5 size=       0KiB time=00:00:00.68 bitrate=   0.5kbits/s speed=0.00662x elapsed=0:01:42.69    \nframe=   36 fps=0.3 q=45.5 size=       0KiB time=00:00:00.68 bitrate=   0.5kbits/s speed=0.00659x elapsed=0:01:43.23    \nframe=   36 fps=0.3 q=45.5 size=       0KiB time=00:00:00.68 bitrate=   0.5kbits/s speed=0.00655x elapsed=0:01:43.76    \nframe=   36 fps=0.3 q=45.5 size=       0KiB time=00:00:00.68 bitrate=   0.5kbits/s speed=0.00652x elapsed=0:01:44.28    \nframe=   37 fps=0.4 q=45.7 size=       0KiB time=00:00:00.70 bitrate=   0.5kbits/s speed=0.00668x elapsed=0:01:44.79    \nframe=   37 fps=0.4 q=45.7 size=       0KiB time=00:00:00.70 bitrate=   0.5kbits/s speed=0.00665x elapsed=0:01:45.32    \nframe=   38 fps=0.4 q=41.5 size=       0KiB time=00:00:00.72 bitrate=   0.5kbits/s speed=0.0068x elapsed=0:01:45.85    \nframe=   38 fps=0.4 q=41.5 size=       0KiB time=00:00:00.72 bitrate=   0.5kbits/s speed=0.00677x elapsed=0:01:46.36    \nframe=   39 fps=0.4 q=43.5 size=       0KiB time=00:00:00.74 bitrate=   0.5kbits/s speed=0.00692x elapsed=0:01:46.91    \nframe=   39 fps=0.4 q=43.5 size=       0KiB time=00:00:00.74 bitrate=   0.5kbits/s speed=0.00689x elapsed=0:01:47.44    \nframe=   39 fps=0.4 q=43.5 size=       0KiB time=00:00:00.74 bitrate=   0.5kbits/s speed=0.00685x elapsed=0:01:47.98    \nframe=   39 fps=0.4 q=43.5 size=       0KiB time=00:00:00.74 bitrate=   0.5kbits/s speed=0.00682x elapsed=0:01:48.50    \nframe=   40 fps=0.4 q=45.4 size=       0KiB time=00:00:00.76 bitrate=   0.5kbits/s speed=0.00697x elapsed=0:01:49.02    \nframe=   40 fps=0.4 q=45.4 size=       0KiB time=00:00:00.76 bitrate=   0.5kbits/s speed=0.00694x elapsed=0:01:49.56    \nframe=   40 fps=0.4 q=45.4 size=       0KiB time=00:00:00.76 bitrate=   0.5kbits/s speed=0.0069x elapsed=0:01:50.11    \nframe=   40 fps=0.4 q=45.4 size=       0KiB time=00:00:00.76 bitrate=   0.5kbits/s speed=0.00687x elapsed=0:01:50.64    \nframe=   40 fps=0.4 q=45.4 size=       0KiB time=00:00:00.76 bitrate=   0.5kbits/s speed=0.00683x elapsed=0:01:51.20    \nframe=   40 fps=0.4 q=45.4 size=       0KiB time=00:00:00.76 bitrate=   0.5kbits/s speed=0.0068x elapsed=0:01:51.73    \nframe=   40 fps=0.4 q=45.4 size=       0KiB time=00:00:00.76 bitrate=   0.5kbits/s speed=0.00677x elapsed=0:01:52.27    \nframe=   41 fps=0.4 q=45.5 size=       0KiB time=00:00:00.78 bitrate=   0.5kbits/s speed=0.00692x elapsed=0:01:52.78    \nframe=   42 fps=0.4 q=41.3 size=       0KiB time=00:00:00.80 bitrate=   0.4kbits/s speed=0.00706x elapsed=0:01:53.30    \nframe=   42 fps=0.4 q=41.3 size=       0KiB time=00:00:00.80 bitrate=   0.4kbits/s speed=0.00703x elapsed=0:01:53.84    \nframe=   43 fps=0.4 q=43.1 size=       0KiB time=00:00:00.82 bitrate=   0.4kbits/s speed=0.00717x elapsed=0:01:54.37    \nframe=   43 fps=0.4 q=43.1 size=       0KiB time=00:00:00.82 bitrate=   0.4kbits/s speed=0.00714x elapsed=0:01:54.89    \nframe=   43 fps=0.4 q=43.1 size=       0KiB time=00:00:00.82 bitrate=   0.4kbits/s speed=0.00711x elapsed=0:01:55.40    \nframe=   43 fps=0.4 q=43.1 size=       0KiB time=00:00:00.82 bitrate=   0.4kbits/s speed=0.00707x elapsed=0:01:55.93    \nframe=   43 fps=0.4 q=43.1 size=       0KiB time=00:00:00.82 bitrate=   0.4kbits/s speed=0.00704x elapsed=0:01:56.46    \nframe=   43 fps=0.4 q=43.1 size=       0KiB time=00:00:00.82 bitrate=   0.4kbits/s speed=0.00701x elapsed=0:01:57.01    \nframe=   44 fps=0.4 q=45.6 size=       0KiB time=00:00:00.84 bitrate=   0.4kbits/s speed=0.00715x elapsed=0:01:57.51    \nframe=   44 fps=0.4 q=45.6 size=       0KiB time=00:00:00.84 bitrate=   0.4kbits/s speed=0.00712x elapsed=0:01:58.03    \nframe=   45 fps=0.4 q=45.4 size=       0KiB time=00:00:00.86 bitrate=   0.4kbits/s speed=0.00725x elapsed=0:01:58.57    \nframe=   45 fps=0.4 q=45.4 size=       0KiB time=00:00:00.86 bitrate=   0.4kbits/s speed=0.00722x elapsed=0:01:59.13    \nframe=   46 fps=0.4 q=41.3 size=     256KiB time=00:00:00.88 bitrate=2383.5kbits/s speed=0.00735x elapsed=0:01:59.70    \nframe=   46 fps=0.4 q=41.3 size=     256KiB time=00:00:00.88 bitrate=2383.5kbits/s speed=0.00732x elapsed=0:02:00.21    \nframe=   46 fps=0.4 q=41.3 size=     256KiB time=00:00:00.88 bitrate=2383.5kbits/s speed=0.00729x elapsed=0:02:00.74    \nframe=   46 fps=0.4 q=41.3 size=     256KiB time=00:00:00.88 bitrate=2383.5kbits/s speed=0.00726x elapsed=0:02:01.26    \nframe=   47 fps=0.4 q=43.1 size=     256KiB time=00:00:00.90 bitrate=2330.6kbits/s speed=0.00739x elapsed=0:02:01.82    \nframe=   47 fps=0.4 q=43.1 size=     256KiB time=00:00:00.90 bitrate=2330.6kbits/s speed=0.00735x elapsed=0:02:02.37    \nframe=   47 fps=0.4 q=43.1 size=     256KiB time=00:00:00.90 bitrate=2330.6kbits/s speed=0.00732x elapsed=0:02:02.93    \nframe=   47 fps=0.4 q=43.1 size=     256KiB time=00:00:00.90 bitrate=2330.6kbits/s speed=0.00729x elapsed=0:02:03.45    \nframe=   47 fps=0.4 q=43.1 size=     256KiB time=00:00:00.90 bitrate=2330.6kbits/s speed=0.00726x elapsed=0:02:03.97    \nframe=   48 fps=0.4 q=45.3 size=     256KiB time=00:00:00.92 bitrate=2279.9kbits/s speed=0.00739x elapsed=0:02:04.51    \nframe=   48 fps=0.4 q=45.3 size=     256KiB time=00:00:00.92 bitrate=2279.9kbits/s speed=0.00736x elapsed=0:02:05.02    \nframe=   48 fps=0.4 q=45.3 size=     256KiB time=00:00:00.92 bitrate=2279.9kbits/s speed=0.00733x elapsed=0:02:05.54    \nframe=   48 fps=0.4 q=45.3 size=     256KiB time=00:00:00.92 bitrate=2279.9kbits/s speed=0.0073x elapsed=0:02:06.10    \nframe=   48 fps=0.4 q=45.3 size=     256KiB time=00:00:00.92 bitrate=2279.9kbits/s speed=0.00726x elapsed=0:02:06.65    \nframe=   49 fps=0.4 q=45.6 size=     256KiB time=00:00:00.94 bitrate=2231.4kbits/s speed=0.00739x elapsed=0:02:07.17    \nframe=   49 fps=0.4 q=45.6 size=     256KiB time=00:00:00.94 bitrate=2231.4kbits/s speed=0.00736x elapsed=0:02:07.70    \nframe=   49 fps=0.4 q=45.6 size=     256KiB time=00:00:00.94 bitrate=2231.4kbits/s speed=0.00733x elapsed=0:02:08.25    \nframe=   50 fps=0.4 q=41.1 size=     256KiB time=00:00:00.96 bitrate=2184.9kbits/s speed=0.00745x elapsed=0:02:08.79    \nframe=   50 fps=0.4 q=41.1 size=     256KiB time=00:00:00.96 bitrate=2184.9kbits/s speed=0.00742x elapsed=0:02:09.33    \nframe=   51 fps=0.4 q=43.5 size=     256KiB time=00:00:00.98 bitrate=2140.3kbits/s speed=0.00755x elapsed=0:02:09.87    \nframe=   51 fps=0.4 q=43.5 size=     256KiB time=00:00:00.98 bitrate=2140.3kbits/s speed=0.00752x elapsed=0:02:10.40    \nframe=   51 fps=0.4 q=43.5 size=     256KiB time=00:00:00.98 bitrate=2140.3kbits/s speed=0.00748x elapsed=0:02:10.92    \nframe=   52 fps=0.4 q=45.3 size=     256KiB time=00:00:01.00 bitrate=2097.5kbits/s speed=0.0076x elapsed=0:02:11.50    \nframe=   52 fps=0.4 q=45.3 size=     256KiB time=00:00:01.00 bitrate=2097.5kbits/s speed=0.00757x elapsed=0:02:12.07    \nframe=   52 fps=0.4 q=45.3 size=     256KiB time=00:00:01.00 bitrate=2097.5kbits/s speed=0.00754x elapsed=0:02:12.60    \nframe=   52 fps=0.4 q=45.3 size=     256KiB time=00:00:01.00 bitrate=2097.5kbits/s speed=0.00751x elapsed=0:02:13.13    \nframe=   52 fps=0.4 q=45.3 size=     256KiB time=00:00:01.00 bitrate=2097.5kbits/s speed=0.00748x elapsed=0:02:13.66    \nframe=   53 fps=0.4 q=45.4 size=     256KiB time=00:00:01.02 bitrate=2056.4kbits/s speed=0.0076x elapsed=0:02:14.20    \nframe=   54 fps=0.4 q=41.0 size=     256KiB time=00:00:01.04 bitrate=2016.8kbits/s speed=0.00772x elapsed=0:02:14.73    \nframe=   54 fps=0.4 q=41.0 size=     256KiB time=00:00:01.04 bitrate=2016.8kbits/s speed=0.00769x elapsed=0:02:15.29    \nframe=   54 fps=0.4 q=41.0 size=     256KiB time=00:00:01.04 bitrate=2016.8kbits/s speed=0.00766x elapsed=0:02:15.83    \nframe=   54 fps=0.4 q=41.0 size=     256KiB time=00:00:01.04 bitrate=2016.8kbits/s speed=0.00762x elapsed=0:02:16.43    \nframe=   54 fps=0.4 q=41.0 size=     256KiB time=00:00:01.04 bitrate=2016.8kbits/s speed=0.00759x elapsed=0:02:17.00    \nframe=   54 fps=0.4 q=41.0 size=     256KiB time=00:00:01.04 bitrate=2016.8kbits/s speed=0.00756x elapsed=0:02:17.61    \nframe=   54 fps=0.4 q=41.0 size=     256KiB time=00:00:01.04 bitrate=2016.8kbits/s speed=0.00752x elapsed=0:02:18.25    \nframe=   54 fps=0.4 q=41.0 size=     256KiB time=00:00:01.04 bitrate=2016.8kbits/s speed=0.00749x elapsed=0:02:18.88    \nframe=   54 fps=0.4 q=41.0 size=     256KiB time=00:00:01.04 bitrate=2016.8kbits/s speed=0.00745x elapsed=0:02:19.51    \nframe=   54 fps=0.4 q=41.0 size=     256KiB time=00:00:01.04 bitrate=2016.8kbits/s speed=0.00742x elapsed=0:02:20.16    \nframe=   54 fps=0.4 q=41.0 size=     256KiB time=00:00:01.04 bitrate=2016.8kbits/s speed=0.00738x elapsed=0:02:20.83    \nframe=   54 fps=0.4 q=41.0 size=     256KiB time=00:00:01.04 bitrate=2016.8kbits/s speed=0.00735x elapsed=0:02:21.46    \nframe=   54 fps=0.4 q=41.0 size=     256KiB time=00:00:01.04 bitrate=2016.8kbits/s speed=0.00732x elapsed=0:02:22.08    \nframe=   54 fps=0.4 q=41.0 size=     256KiB time=00:00:01.04 bitrate=2016.8kbits/s speed=0.00729x elapsed=0:02:22.70    \nframe=   54 fps=0.4 q=41.0 size=     256KiB time=00:00:01.04 bitrate=2016.8kbits/s speed=0.00726x elapsed=0:02:23.31    \nframe=   55 fps=0.4 q=43.3 size=     256KiB time=00:00:01.06 bitrate=1978.8kbits/s speed=0.00737x elapsed=0:02:23.90    \nframe=   55 fps=0.4 q=43.3 size=     256KiB time=00:00:01.06 bitrate=1978.8kbits/s speed=0.00733x elapsed=0:02:24.52    \nframe=   55 fps=0.4 q=43.3 size=     256KiB time=00:00:01.06 bitrate=1978.8kbits/s speed=0.0073x elapsed=0:02:25.10    \nframe=   55 fps=0.4 q=43.3 size=     256KiB time=00:00:01.06 bitrate=1978.8kbits/s speed=0.00728x elapsed=0:02:25.62    \nframe=   55 fps=0.4 q=43.3 size=     256KiB time=00:00:01.06 bitrate=1978.8kbits/s speed=0.00725x elapsed=0:02:26.14    \nframe=   55 fps=0.4 q=43.3 size=     256KiB time=00:00:01.06 bitrate=1978.8kbits/s speed=0.00723x elapsed=0:02:26.71    \nframe=   55 fps=0.4 q=43.3 size=     256KiB time=00:00:01.06 bitrate=1978.8kbits/s speed=0.0072x elapsed=0:02:27.25    \nframe=   56 fps=0.4 q=45.5 size=     256KiB time=00:00:01.08 bitrate=1942.1kbits/s speed=0.00731x elapsed=0:02:27.82    \nframe=   56 fps=0.4 q=45.5 size=     256KiB time=00:00:01.08 bitrate=1942.1kbits/s speed=0.00728x elapsed=0:02:28.39    \nframe=   56 fps=0.4 q=45.5 size=     256KiB time=00:00:01.08 bitrate=1942.1kbits/s speed=0.00725x elapsed=0:02:28.96    \nframe=   56 fps=0.4 q=45.5 size=     256KiB time=00:00:01.08 bitrate=1942.1kbits/s speed=0.00722x elapsed=0:02:29.50    \nframe=   56 fps=0.4 q=45.5 size=     256KiB time=00:00:01.08 bitrate=1942.1kbits/s speed=0.0072x elapsed=0:02:30.01    \nframe=   56 fps=0.4 q=45.5 size=     256KiB time=00:00:01.08 bitrate=1942.1kbits/s speed=0.00717x elapsed=0:02:30.53    \nframe=   56 fps=0.4 q=45.5 size=     256KiB time=00:00:01.08 bitrate=1942.1kbits/s speed=0.00715x elapsed=0:02:31.08    \nframe=   56 fps=0.4 q=45.5 size=     256KiB time=00:00:01.08 bitrate=1942.1kbits/s speed=0.00712x elapsed=0:02:31.62    \nframe=   57 fps=0.4 q=45.4 size=     256KiB time=00:00:01.10 bitrate=1906.8kbits/s speed=0.00723x elapsed=0:02:32.14    \nframe=   57 fps=0.4 q=45.4 size=     256KiB time=00:00:01.10 bitrate=1906.8kbits/s speed=0.0072x elapsed=0:02:32.68    \nframe=   58 fps=0.4 q=41.0 size=     256KiB time=00:00:01.12 bitrate=1872.8kbits/s speed=0.00731x elapsed=0:02:33.20    \nframe=   58 fps=0.4 q=41.0 size=     256KiB time=00:00:01.12 bitrate=1872.8kbits/s speed=0.00729x elapsed=0:02:33.73    \nframe=   59 fps=0.4 q=43.2 size=     256KiB time=00:00:01.14 bitrate=1839.9kbits/s speed=0.00739x elapsed=0:02:34.26    \nframe=   59 fps=0.4 q=43.2 size=     256KiB time=00:00:01.14 bitrate=1839.9kbits/s speed=0.00737x elapsed=0:02:34.76    \nframe=   59 fps=0.4 q=43.2 size=     256KiB time=00:00:01.14 bitrate=1839.9kbits/s speed=0.00734x elapsed=0:02:35.29    \nframe=   60 fps=0.4 q=45.7 size=     256KiB time=00:00:01.14 bitrate=1839.9kbits/s speed=0.00731x elapsed=0:02:35.85    \nframe=   60 fps=0.4 q=45.7 size=     256KiB time=00:00:01.16 bitrate=1808.2kbits/s speed=0.00742x elapsed=0:02:36.41    \nframe=   60 fps=0.4 q=45.7 size=     256KiB time=00:00:01.16 bitrate=1808.2kbits/s speed=0.00739x elapsed=0:02:36.93    \nframe=   60 fps=0.4 q=45.7 size=     256KiB time=00:00:01.16 bitrate=1808.2kbits/s speed=0.00737x elapsed=0:02:37.46    \nframe=   61 fps=0.4 q=45.5 size=     256KiB time=00:00:01.18 bitrate=1777.5kbits/s speed=0.00747x elapsed=0:02:37.98    \nframe=   61 fps=0.4 q=45.5 size=     256KiB time=00:00:01.18 bitrate=1777.5kbits/s speed=0.00744x elapsed=0:02:38.51    \nframe=   61 fps=0.4 q=45.5 size=     256KiB time=00:00:01.18 bitrate=1777.5kbits/s speed=0.00742x elapsed=0:02:39.04    \nframe=   63 fps=0.4 q=43.3 size=     256KiB time=00:00:01.22 bitrate=1719.3kbits/s speed=0.00764x elapsed=0:02:39.60    \nframe=   63 fps=0.4 q=43.3 size=     256KiB time=00:00:01.22 bitrate=1719.3kbits/s speed=0.00762x elapsed=0:02:40.12    \nframe=   63 fps=0.4 q=43.3 size=     256KiB time=00:00:01.22 bitrate=1719.3kbits/s speed=0.0076x elapsed=0:02:40.62    \nframe=   63 fps=0.4 q=43.3 size=     256KiB time=00:00:01.22 bitrate=1719.3kbits/s speed=0.00757x elapsed=0:02:41.15    \nframe=   63 fps=0.4 q=43.3 size=     256KiB time=00:00:01.22 bitrate=1719.3kbits/s speed=0.00755x elapsed=0:02:41.67    \nframe=   63 fps=0.4 q=43.3 size=     256KiB time=00:00:01.22 bitrate=1719.3kbits/s speed=0.00752x elapsed=0:02:42.18    \nframe=   64 fps=0.4 q=45.4 size=     256KiB time=00:00:01.24 bitrate=1691.5kbits/s speed=0.00762x elapsed=0:02:42.72    \nframe=   64 fps=0.4 q=45.4 size=     256KiB time=00:00:01.24 bitrate=1691.5kbits/s speed=0.0076x elapsed=0:02:43.26    \nframe=   64 fps=0.4 q=45.4 size=     256KiB time=00:00:01.24 bitrate=1691.5kbits/s speed=0.00757x elapsed=0:02:43.78    \nframe=   64 fps=0.4 q=45.4 size=     256KiB time=00:00:01.24 bitrate=1691.5kbits/s speed=0.00755x elapsed=0:02:44.30    \nframe=   65 fps=0.4 q=45.4 size=     256KiB time=00:00:01.26 bitrate=1664.7kbits/s speed=0.00764x elapsed=0:02:44.84    \nframe=   65 fps=0.4 q=45.4 size=     256KiB time=00:00:01.26 bitrate=1664.7kbits/s speed=0.00762x elapsed=0:02:45.38    \nframe=   65 fps=0.4 q=45.4 size=     256KiB time=00:00:01.26 bitrate=1664.7kbits/s speed=0.00759x elapsed=0:02:45.91    \nframe=   66 fps=0.4 q=41.1 size=     256KiB time=00:00:01.28 bitrate=1638.7kbits/s speed=0.00769x elapsed=0:02:46.44    \nframe=   66 fps=0.4 q=41.1 size=     256KiB time=00:00:01.28 bitrate=1638.7kbits/s speed=0.00767x elapsed=0:02:46.97    \nframe=   66 fps=0.4 q=41.1 size=     256KiB time=00:00:01.28 bitrate=1638.7kbits/s speed=0.00764x elapsed=0:02:47.51    \nframe=   66 fps=0.4 q=41.1 size=     256KiB time=00:00:01.28 bitrate=1638.7kbits/s speed=0.00762x elapsed=0:02:48.04    \nframe=   67 fps=0.4 q=43.4 size=     256KiB time=00:00:01.30 bitrate=1613.5kbits/s speed=0.00771x elapsed=0:02:48.56    \nframe=   67 fps=0.4 q=43.4 size=     256KiB time=00:00:01.30 bitrate=1613.5kbits/s speed=0.00769x elapsed=0:02:49.10    \nframe=   67 fps=0.4 q=43.4 size=     256KiB time=00:00:01.30 bitrate=1613.5kbits/s speed=0.00766x elapsed=0:02:49.63    \nframe=   67 fps=0.4 q=43.4 size=     256KiB time=00:00:01.30 bitrate=1613.5kbits/s speed=0.00764x elapsed=0:02:50.14    \nframe=   67 fps=0.4 q=43.4 size=     256KiB time=00:00:01.30 bitrate=1613.5kbits/s speed=0.00762x elapsed=0:02:50.67    \nframe=   67 fps=0.4 q=43.4 size=     256KiB time=00:00:01.30 bitrate=1613.5kbits/s speed=0.00759x elapsed=0:02:51.18    \nframe=   68 fps=0.4 q=45.6 size=     256KiB time=00:00:01.32 bitrate=1589.0kbits/s speed=0.00769x elapsed=0:02:51.70    \nframe=   68 fps=0.4 q=45.6 size=     256KiB time=00:00:01.32 bitrate=1589.0kbits/s speed=0.00766x elapsed=0:02:52.25    \nframe=   68 fps=0.4 q=45.6 size=     256KiB time=00:00:01.32 bitrate=1589.0kbits/s speed=0.00764x elapsed=0:02:52.80    \nframe=   68 fps=0.4 q=45.6 size=     256KiB time=00:00:01.32 bitrate=1589.0kbits/s speed=0.00762x elapsed=0:02:53.33    \nframe=   69 fps=0.4 q=46.0 size=     256KiB time=00:00:01.34 bitrate=1565.3kbits/s speed=0.00771x elapsed=0:02:53.88    \nframe=   69 fps=0.4 q=46.0 size=     256KiB time=00:00:01.34 bitrate=1565.3kbits/s speed=0.00768x elapsed=0:02:54.41    \nframe=   70 fps=0.4 q=41.0 size=     256KiB time=00:00:01.36 bitrate=1542.3kbits/s speed=0.00777x elapsed=0:02:54.93    \nframe=   70 fps=0.4 q=41.0 size=     256KiB time=00:00:01.36 bitrate=1542.3kbits/s speed=0.00775x elapsed=0:02:55.47    \nframe=   71 fps=0.4 q=43.4 size=     256KiB time=00:00:01.38 bitrate=1519.9kbits/s speed=0.00784x elapsed=0:02:56.00    \nframe=   71 fps=0.4 q=43.4 size=     256KiB time=00:00:01.38 bitrate=1519.9kbits/s speed=0.00782x elapsed=0:02:56.53    \nframe=   71 fps=0.4 q=43.4 size=     256KiB time=00:00:01.38 bitrate=1519.9kbits/s speed=0.00779x elapsed=0:02:57.05    \nframe=   71 fps=0.4 q=43.4 size=     256KiB time=00:00:01.38 bitrate=1519.9kbits/s speed=0.00777x elapsed=0:02:57.56    \nframe=   71 fps=0.4 q=43.4 size=     256KiB time=00:00:01.38 bitrate=1519.9kbits/s speed=0.00775x elapsed=0:02:58.08    \nframe=   71 fps=0.4 q=43.4 size=     256KiB time=00:00:01.38 bitrate=1519.9kbits/s speed=0.00773x elapsed=0:02:58.60    \nframe=   71 fps=0.4 q=43.4 size=     256KiB time=00:00:01.38 bitrate=1519.9kbits/s speed=0.0077x elapsed=0:02:59.12    \nframe=   72 fps=0.4 q=46.0 size=     256KiB time=00:00:01.40 bitrate=1498.2kbits/s speed=0.00779x elapsed=0:02:59.66    \nframe=   72 fps=0.4 q=46.0 size=     256KiB time=00:00:01.40 bitrate=1498.2kbits/s speed=0.00777x elapsed=0:03:00.20    \nframe=   72 fps=0.4 q=46.0 size=     256KiB time=00:00:01.40 bitrate=1498.2kbits/s speed=0.00775x elapsed=0:03:00.72    \nframe=   72 fps=0.4 q=46.0 size=     256KiB time=00:00:01.40 bitrate=1498.2kbits/s speed=0.00772x elapsed=0:03:01.25    \nframe=   72 fps=0.4 q=46.0 size=     256KiB time=00:00:01.40 bitrate=1498.2kbits/s speed=0.0077x elapsed=0:03:01.77    \nframe=   73 fps=0.4 q=46.1 size=     256KiB time=00:00:01.42 bitrate=1477.1kbits/s speed=0.00779x elapsed=0:03:02.31    \nframe=   73 fps=0.4 q=46.1 size=     256KiB time=00:00:01.42 bitrate=1477.1kbits/s speed=0.00777x elapsed=0:03:02.85    \nframe=   73 fps=0.4 q=46.1 size=     256KiB time=00:00:01.42 bitrate=1477.1kbits/s speed=0.00774x elapsed=0:03:03.37    \nframe=   74 fps=0.4 q=41.1 size=     256KiB time=00:00:01.44 bitrate=1456.6kbits/s speed=0.00783x elapsed=0:03:03.92    \nframe=   74 fps=0.4 q=41.1 size=     256KiB time=00:00:01.44 bitrate=1456.6kbits/s speed=0.00781x elapsed=0:03:04.44    \nframe=   74 fps=0.4 q=41.1 size=     256KiB time=00:00:01.44 bitrate=1456.6kbits/s speed=0.00778x elapsed=0:03:04.97    \nframe=   75 fps=0.4 q=43.7 size=     256KiB time=00:00:01.46 bitrate=1436.6kbits/s speed=0.00787x elapsed=0:03:05.50    \nframe=   75 fps=0.4 q=43.7 size=     256KiB time=00:00:01.46 bitrate=1436.6kbits/s speed=0.00785x elapsed=0:03:06.05    \nframe=   75 fps=0.4 q=43.7 size=     256KiB time=00:00:01.46 bitrate=1436.6kbits/s speed=0.00783x elapsed=0:03:06.57    \nframe=   75 fps=0.4 q=43.7 size=     256KiB time=00:00:01.46 bitrate=1436.6kbits/s speed=0.0078x elapsed=0:03:07.10    \nframe=   75 fps=0.4 q=43.7 size=     256KiB time=00:00:01.46 bitrate=1436.6kbits/s speed=0.00778x elapsed=0:03:07.61    \nframe=   75 fps=0.4 q=43.7 size=     256KiB time=00:00:01.46 bitrate=1436.6kbits/s speed=0.00776x elapsed=0:03:08.13    \nframe=   76 fps=0.4 q=45.9 size=     256KiB time=00:00:01.48 bitrate=1417.2kbits/s speed=0.00784x elapsed=0:03:08.66    \nframe=   76 fps=0.4 q=45.9 size=     256KiB time=00:00:01.48 bitrate=1417.2kbits/s speed=0.00782x elapsed=0:03:09.20    \nframe=   77 fps=0.4 q=46.0 size=     256KiB time=00:00:01.50 bitrate=1398.3kbits/s speed=0.00791x elapsed=0:03:09.71    \nframe=   77 fps=0.4 q=46.0 size=     256KiB time=00:00:01.50 bitrate=1398.3kbits/s speed=0.00788x elapsed=0:03:10.28    \nframe=   78 fps=0.4 q=41.0 size=     256KiB time=00:00:01.52 bitrate=1379.9kbits/s speed=0.00797x elapsed=0:03:10.81    \nframe=   79 fps=0.4 q=43.5 size=     256KiB time=00:00:01.54 bitrate=1362.0kbits/s speed=0.00805x elapsed=0:03:11.33    \nframe=   79 fps=0.4 q=43.5 size=     256KiB time=00:00:01.54 bitrate=1362.0kbits/s speed=0.00803x elapsed=0:03:11.85    \nframe=   79 fps=0.4 q=43.5 size=     256KiB time=00:00:01.54 bitrate=1362.0kbits/s speed=0.00801x elapsed=0:03:12.37    \nframe=   79 fps=0.4 q=43.5 size=     256KiB time=00:00:01.54 bitrate=1362.0kbits/s speed=0.00798x elapsed=0:03:12.89    \nframe=   80 fps=0.4 q=45.9 size=     256KiB time=00:00:01.56 bitrate=1344.6kbits/s speed=0.00807x elapsed=0:03:13.42    \nframe=   80 fps=0.4 q=45.9 size=     256KiB time=00:00:01.56 bitrate=1344.6kbits/s speed=0.00804x elapsed=0:03:13.93    \nframe=   80 fps=0.4 q=45.9 size=     256KiB time=00:00:01.56 bitrate=1344.6kbits/s speed=0.00802x elapsed=0:03:14.46    \nframe=   80 fps=0.4 q=45.9 size=     256KiB time=00:00:01.56 bitrate=1344.6kbits/s speed=0.008x elapsed=0:03:15.00    \nframe=   80 fps=0.4 q=45.9 size=     256KiB time=00:00:01.56 bitrate=1344.6kbits/s speed=0.00798x elapsed=0:03:15.51    \nframe=   81 fps=0.4 q=45.8 size=     256KiB time=00:00:01.58 bitrate=1327.5kbits/s speed=0.00806x elapsed=0:03:16.03    \nframe=   81 fps=0.4 q=45.8 size=     256KiB time=00:00:01.58 bitrate=1327.5kbits/s speed=0.00804x elapsed=0:03:16.58    \nframe=   82 fps=0.4 q=40.8 size=     256KiB time=00:00:01.60 bitrate=1310.9kbits/s speed=0.00812x elapsed=0:03:17.12    \nframe=   82 fps=0.4 q=40.8 size=     256KiB time=00:00:01.60 bitrate=1310.9kbits/s speed=0.0081x elapsed=0:03:17.64    \nframe=   82 fps=0.4 q=40.8 size=     256KiB time=00:00:01.60 bitrate=1310.9kbits/s speed=0.00807x elapsed=0:03:18.18    \nframe=   82 fps=0.4 q=40.8 size=     256KiB time=00:00:01.60 bitrate=1310.9kbits/s speed=0.00805x elapsed=0:03:18.70    \nframe=   82 fps=0.4 q=40.8 size=     256KiB time=00:00:01.60 bitrate=1310.9kbits/s speed=0.00803x elapsed=0:03:19.23    \nframe=   83 fps=0.4 q=43.4 size=     256KiB time=00:00:01.62 bitrate=1294.8kbits/s speed=0.00811x elapsed=0:03:19.75    \nframe=   83 fps=0.4 q=43.4 size=     256KiB time=00:00:01.62 bitrate=1294.8kbits/s speed=0.00809x elapsed=0:03:20.29    \nframe=   83 fps=0.4 q=43.4 size=     256KiB time=00:00:01.62 bitrate=1294.8kbits/s speed=0.00807x elapsed=0:03:20.79    \nframe=   83 fps=0.4 q=43.4 size=     256KiB time=00:00:01.62 bitrate=1294.8kbits/s speed=0.00805x elapsed=0:03:21.31    \nframe=   83 fps=0.4 q=43.4 size=     256KiB time=00:00:01.62 bitrate=1294.8kbits/s speed=0.00803x elapsed=0:03:21.83    \nframe=   84 fps=0.4 q=45.8 size=     256KiB time=00:00:01.64 bitrate=1279.0kbits/s speed=0.0081x elapsed=0:03:22.36    \nframe=   84 fps=0.4 q=45.8 size=     256KiB time=00:00:01.64 bitrate=1279.0kbits/s speed=0.00808x elapsed=0:03:22.91    \nframe=   84 fps=0.4 q=45.8 size=     256KiB time=00:00:01.64 bitrate=1279.0kbits/s speed=0.00806x elapsed=0:03:23.44    \nframe=   85 fps=0.4 q=45.8 size=     256KiB time=00:00:01.66 bitrate=1263.6kbits/s speed=0.00814x elapsed=0:03:23.97    \nframe=   85 fps=0.4 q=45.8 size=     256KiB time=00:00:01.66 bitrate=1263.6kbits/s speed=0.00812x elapsed=0:03:24.52    \nframe=   86 fps=0.4 q=40.6 size=     256KiB time=00:00:01.68 bitrate=1248.5kbits/s speed=0.00819x elapsed=0:03:25.03    \nframe=   86 fps=0.4 q=40.6 size=     256KiB time=00:00:01.68 bitrate=1248.5kbits/s speed=0.00817x elapsed=0:03:25.56    \nframe=   86 fps=0.4 q=40.6 size=     256KiB time=00:00:01.68 bitrate=1248.5kbits/s speed=0.00815x elapsed=0:03:26.09    \nframe=   87 fps=0.4 q=43.4 size=     512KiB time=00:00:01.70 bitrate=2467.4kbits/s speed=0.00823x elapsed=0:03:26.61    \nframe=   87 fps=0.4 q=43.4 size=     512KiB time=00:00:01.70 bitrate=2467.4kbits/s speed=0.00821x elapsed=0:03:27.13    \nframe=   87 fps=0.4 q=43.4 size=     512KiB time=00:00:01.70 bitrate=2467.4kbits/s speed=0.00819x elapsed=0:03:27.64    \nframe=   87 fps=0.4 q=43.4 size=     512KiB time=00:00:01.70 bitrate=2467.4kbits/s speed=0.00817x elapsed=0:03:28.16    \nframe=   87 fps=0.4 q=43.4 size=     512KiB time=00:00:01.70 bitrate=2467.4kbits/s speed=0.00815x elapsed=0:03:28.68    \nframe=   87 fps=0.4 q=43.4 size=     512KiB time=00:00:01.70 bitrate=2467.4kbits/s speed=0.00813x elapsed=0:03:29.20    \nframe=   88 fps=0.4 q=45.8 size=     512KiB time=00:00:01.72 bitrate=2438.8kbits/s speed=0.0082x elapsed=0:03:29.72    \nframe=   88 fps=0.4 q=45.8 size=     512KiB time=00:00:01.72 bitrate=2438.8kbits/s speed=0.00818x elapsed=0:03:30.24    \nframe=   89 fps=0.4 q=46.0 size=     512KiB time=00:00:01.74 bitrate=2410.7kbits/s speed=0.00826x elapsed=0:03:30.76    \nframe=   89 fps=0.4 q=46.0 size=     512KiB time=00:00:01.74 bitrate=2410.7kbits/s speed=0.00823x elapsed=0:03:31.30    \nframe=   89 fps=0.4 q=46.0 size=     512KiB time=00:00:01.74 bitrate=2410.7kbits/s speed=0.00821x elapsed=0:03:31.83    \nframe=   89 fps=0.4 q=46.0 size=     512KiB time=00:00:01.74 bitrate=2410.7kbits/s speed=0.00819x elapsed=0:03:32.35    \nframe=   90 fps=0.4 q=40.4 size=     512KiB time=00:00:01.76 bitrate=2383.3kbits/s speed=0.00827x elapsed=0:03:32.87    \nframe=   90 fps=0.4 q=40.4 size=     512KiB time=00:00:01.76 bitrate=2383.3kbits/s speed=0.00825x elapsed=0:03:33.40    \nframe=   90 fps=0.4 q=40.4 size=     512KiB time=00:00:01.76 bitrate=2383.3kbits/s speed=0.00823x elapsed=0:03:33.93    \nframe=   91 fps=0.4 q=43.2 size=     512KiB time=00:00:01.78 bitrate=2356.5kbits/s speed=0.0083x elapsed=0:03:34.47    \nframe=   91 fps=0.4 q=43.2 size=     512KiB time=00:00:01.78 bitrate=2356.5kbits/s speed=0.00828x elapsed=0:03:34.99    \nframe=   91 fps=0.4 q=43.2 size=     512KiB time=00:00:01.78 bitrate=2356.5kbits/s speed=0.00826x elapsed=0:03:35.51    \nframe=   91 fps=0.4 q=43.2 size=     512KiB time=00:00:01.78 bitrate=2356.5kbits/s speed=0.00824x elapsed=0:03:36.04    \nframe=   91 fps=0.4 q=43.2 size=     512KiB time=00:00:01.78 bitrate=2356.5kbits/s speed=0.00822x elapsed=0:03:36.60    \nframe=   91 fps=0.4 q=43.2 size=     512KiB time=00:00:01.78 bitrate=2356.5kbits/s speed=0.0082x elapsed=0:03:37.13    \nframe=   91 fps=0.4 q=43.2 size=     512KiB time=00:00:01.78 bitrate=2356.5kbits/s speed=0.00818x elapsed=0:03:37.69    \nframe=   91 fps=0.4 q=43.2 size=     512KiB time=00:00:01.78 bitrate=2356.5kbits/s speed=0.00816x elapsed=0:03:38.23    \nframe=   92 fps=0.4 q=45.5 size=     512KiB time=00:00:01.80 bitrate=2330.4kbits/s speed=0.00823x elapsed=0:03:38.75    \nframe=   92 fps=0.4 q=45.5 size=     512KiB time=00:00:01.80 bitrate=2330.4kbits/s speed=0.00821x elapsed=0:03:39.30    \nframe=   92 fps=0.4 q=45.5 size=     512KiB time=00:00:01.80 bitrate=2330.4kbits/s speed=0.00819x elapsed=0:03:39.82    \nframe=   92 fps=0.4 q=45.5 size=     512KiB time=00:00:01.80 bitrate=2330.4kbits/s speed=0.00817x elapsed=0:03:40.35    \nframe=   92 fps=0.4 q=45.5 size=     512KiB time=00:00:01.80 bitrate=2330.4kbits/s speed=0.00815x elapsed=0:03:40.93    \nframe=   92 fps=0.4 q=45.5 size=     512KiB time=00:00:01.80 bitrate=2330.4kbits/s speed=0.00813x elapsed=0:03:41.47    \nframe=   92 fps=0.4 q=45.5 size=     512KiB time=00:00:01.80 bitrate=2330.4kbits/s speed=0.00811x elapsed=0:03:42.06    \nframe=   92 fps=0.4 q=45.5 size=     512KiB time=00:00:01.80 bitrate=2330.4kbits/s speed=0.00809x elapsed=0:03:42.60    \nframe=   92 fps=0.4 q=45.5 size=     512KiB time=00:00:01.80 bitrate=2330.4kbits/s speed=0.00807x elapsed=0:03:43.18    \nframe=   92 fps=0.4 q=45.5 size=     512KiB time=00:00:01.80 bitrate=2330.4kbits/s speed=0.00804x elapsed=0:03:43.78    \nframe=   92 fps=0.4 q=45.5 size=     512KiB time=00:00:01.80 bitrate=2330.4kbits/s speed=0.00802x elapsed=0:03:44.47    \nframe=   92 fps=0.4 q=45.5 size=     512KiB time=00:00:01.80 bitrate=2330.4kbits/s speed=0.008x elapsed=0:03:45.12    \nframe=   92 fps=0.4 q=45.5 size=     512KiB time=00:00:01.80 bitrate=2330.4kbits/s speed=0.00797x elapsed=0:03:45.80    \nframe=   92 fps=0.4 q=45.5 size=     512KiB time=00:00:01.80 bitrate=2330.4kbits/s speed=0.00795x elapsed=0:03:46.40    \nframe=   92 fps=0.4 q=45.5 size=     512KiB time=00:00:01.80 bitrate=2330.4kbits/s speed=0.00793x elapsed=0:03:46.95    \nframe=   92 fps=0.4 q=45.5 size=     512KiB time=00:00:01.80 bitrate=2330.4kbits/s speed=0.00791x elapsed=0:03:47.51    \nframe=   92 fps=0.4 q=45.5 size=     512KiB time=00:00:01.80 bitrate=2330.4kbits/s speed=0.00789x elapsed=0:03:48.05    \nframe=   93 fps=0.4 q=45.6 size=     512KiB time=00:00:01.82 bitrate=2304.8kbits/s speed=0.00796x elapsed=0:03:48.64    \nframe=   93 fps=0.4 q=45.6 size=     512KiB time=00:00:01.82 bitrate=2304.8kbits/s speed=0.00794x elapsed=0:03:49.23    \nframe=   93 fps=0.4 q=45.6 size=     512KiB time=00:00:01.82 bitrate=2304.8kbits/s speed=0.00792x elapsed=0:03:49.78    \nframe=   93 fps=0.4 q=45.6 size=     512KiB time=00:00:01.82 bitrate=2304.8kbits/s speed=0.0079x elapsed=0:03:50.39    \nframe=   93 fps=0.4 q=45.6 size=     512KiB time=00:00:01.82 bitrate=2304.8kbits/s speed=0.00788x elapsed=0:03:50.96    \nframe=   93 fps=0.4 q=45.6 size=     512KiB time=00:00:01.82 bitrate=2304.8kbits/s speed=0.00786x elapsed=0:03:51.53    \nframe=   93 fps=0.4 q=45.6 size=     512KiB time=00:00:01.82 bitrate=2304.8kbits/s speed=0.00784x elapsed=0:03:52.04    \nframe=   93 fps=0.4 q=45.6 size=     512KiB time=00:00:01.82 bitrate=2304.8kbits/s speed=0.00783x elapsed=0:03:52.57    \nframe=   94 fps=0.4 q=39.9 size=     512KiB time=00:00:01.84 bitrate=2279.7kbits/s speed=0.00789x elapsed=0:03:53.12    \nframe=   94 fps=0.4 q=39.9 size=     512KiB time=00:00:01.84 bitrate=2279.7kbits/s speed=0.00787x elapsed=0:03:53.68    \nframe=   95 fps=0.4 q=44.2 size=     512KiB time=00:00:01.86 bitrate=2255.2kbits/s speed=0.00794x elapsed=0:03:54.25    \nframe=   95 fps=0.4 q=44.2 size=     512KiB time=00:00:01.86 bitrate=2255.2kbits/s speed=0.00792x elapsed=0:03:54.78    \nframe=   95 fps=0.4 q=44.2 size=     512KiB time=00:00:01.86 bitrate=2255.2kbits/s speed=0.0079x elapsed=0:03:55.36    \nframe=   95 fps=0.4 q=44.2 size=     512KiB time=00:00:01.86 bitrate=2255.2kbits/s speed=0.00788x elapsed=0:03:55.89    \nframe=   96 fps=0.4 q=45.6 size=     512KiB time=00:00:01.88 bitrate=2231.2kbits/s speed=0.00795x elapsed=0:03:56.41    \nframe=   96 fps=0.4 q=45.6 size=     512KiB time=00:00:01.88 bitrate=2231.2kbits/s speed=0.00793x elapsed=0:03:56.94    \nframe=   96 fps=0.4 q=45.6 size=     512KiB time=00:00:01.88 bitrate=2231.2kbits/s speed=0.00792x elapsed=0:03:57.45    \nframe=   97 fps=0.4 q=45.8 size=     512KiB time=00:00:01.90 bitrate=2207.7kbits/s speed=0.00798x elapsed=0:03:57.97    \nframe=   97 fps=0.4 q=45.8 size=     512KiB time=00:00:01.90 bitrate=2207.7kbits/s speed=0.00797x elapsed=0:03:58.52    \nframe=   97 fps=0.4 q=45.8 size=     512KiB time=00:00:01.90 bitrate=2207.7kbits/s speed=0.00795x elapsed=0:03:59.09    \nframe=   97 fps=0.4 q=45.8 size=     512KiB time=00:00:01.90 bitrate=2207.7kbits/s speed=0.00793x elapsed=0:03:59.59    \nframe=   98 fps=0.4 q=45.7 size=     512KiB time=00:00:01.92 bitrate=2184.7kbits/s speed=0.008x elapsed=0:04:00.12    \nframe=   98 fps=0.4 q=45.7 size=     512KiB time=00:00:01.92 bitrate=2184.7kbits/s speed=0.00798x elapsed=0:04:00.65    \nframe=   98 fps=0.4 q=45.7 size=     512KiB time=00:00:01.92 bitrate=2184.7kbits/s speed=0.00796x elapsed=0:04:01.17    \nframe=   99 fps=0.4 q=39.8 size=     512KiB time=00:00:01.94 bitrate=2162.2kbits/s speed=0.00803x elapsed=0:04:01.70    \nframe=  101 fps=0.4 q=45.9 size=     512KiB time=00:00:01.98 bitrate=2118.5kbits/s speed=0.00817x elapsed=0:04:02.21    \nframe=  101 fps=0.4 q=45.9 size=     512KiB time=00:00:01.98 bitrate=2118.5kbits/s speed=0.00816x elapsed=0:04:02.74    \nframe=  101 fps=0.4 q=45.9 size=     512KiB time=00:00:01.98 bitrate=2118.5kbits/s speed=0.00814x elapsed=0:04:03.26    \nframe=  101 fps=0.4 q=45.9 size=     512KiB time=00:00:01.98 bitrate=2118.5kbits/s speed=0.00812x elapsed=0:04:03.79    \nframe=  102 fps=0.4 q=46.0 size=     512KiB time=00:00:02.00 bitrate=2097.3kbits/s speed=0.00819x elapsed=0:04:04.33    \nframe=  102 fps=0.4 q=46.0 size=     512KiB time=00:00:02.00 bitrate=2097.3kbits/s speed=0.00817x elapsed=0:04:04.87    \nframe=  102 fps=0.4 q=46.0 size=     512KiB time=00:00:02.00 bitrate=2097.3kbits/s speed=0.00815x elapsed=0:04:05.38    \nframe=  102 fps=0.4 q=46.0 size=     512KiB time=00:00:02.00 bitrate=2097.3kbits/s speed=0.00813x elapsed=0:04:05.92    \nframe=  102 fps=0.4 q=46.0 size=     512KiB time=00:00:02.00 bitrate=2097.3kbits/s speed=0.00811x elapsed=0:04:06.47    \nframe=  102 fps=0.4 q=46.0 size=     512KiB time=00:00:02.00 bitrate=2097.3kbits/s speed=0.00809x elapsed=0:04:07.09    \nframe=  102 fps=0.4 q=46.0 size=     512KiB time=00:00:02.00 bitrate=2097.3kbits/s speed=0.00807x elapsed=0:04:07.69    \nframe=  103 fps=0.4 q=46.3 size=     512KiB time=00:00:02.02 bitrate=2076.6kbits/s speed=0.00814x elapsed=0:04:08.24    \nframe=  103 fps=0.4 q=46.3 size=     512KiB time=00:00:02.02 bitrate=2076.6kbits/s speed=0.00812x elapsed=0:04:08.85    \nframe=  103 fps=0.4 q=46.3 size=     512KiB time=00:00:02.02 bitrate=2076.6kbits/s speed=0.0081x elapsed=0:04:09.39    \nframe=  103 fps=0.4 q=46.3 size=     512KiB time=00:00:02.02 bitrate=2076.6kbits/s speed=0.00808x elapsed=0:04:09.95    \nframe=  104 fps=0.4 q=39.8 size=     512KiB time=00:00:02.04 bitrate=2056.2kbits/s speed=0.00814x elapsed=0:04:10.52    \nframe=  104 fps=0.4 q=39.8 size=     512KiB time=00:00:02.04 bitrate=2056.2kbits/s speed=0.00813x elapsed=0:04:11.05    \nframe=  104 fps=0.4 q=39.8 size=     512KiB time=00:00:02.04 bitrate=2056.2kbits/s speed=0.00811x elapsed=0:04:11.62    \nframe=  104 fps=0.4 q=39.8 size=     512KiB time=00:00:02.04 bitrate=2056.2kbits/s speed=0.00809x elapsed=0:04:12.19    \nframe=  105 fps=0.4 q=43.4 size=     512KiB time=00:00:02.06 bitrate=2036.2kbits/s speed=0.00815x elapsed=0:04:12.74    \nframe=  105 fps=0.4 q=43.4 size=     512KiB time=00:00:02.06 bitrate=2036.2kbits/s speed=0.00813x elapsed=0:04:13.28    \nframe=  105 fps=0.4 q=43.4 size=     512KiB time=00:00:02.06 bitrate=2036.2kbits/s speed=0.00812x elapsed=0:04:13.84    \nframe=  105 fps=0.4 q=43.4 size=     512KiB time=00:00:02.06 bitrate=2036.2kbits/s speed=0.0081x elapsed=0:04:14.40    \nframe=  105 fps=0.4 q=43.4 size=     512KiB time=00:00:02.06 bitrate=2036.2kbits/s speed=0.00808x elapsed=0:04:14.96    \nframe=  105 fps=0.4 q=43.4 size=     512KiB time=00:00:02.06 bitrate=2036.2kbits/s speed=0.00806x elapsed=0:04:15.49    \nframe=  105 fps=0.4 q=43.4 size=     512KiB time=00:00:02.06 bitrate=2036.2kbits/s speed=0.00805x elapsed=0:04:16.00    \nframe=  105 fps=0.4 q=43.4 size=     512KiB time=00:00:02.06 bitrate=2036.2kbits/s speed=0.00803x elapsed=0:04:16.53    \nframe=  105 fps=0.4 q=43.4 size=     512KiB time=00:00:02.06 bitrate=2036.2kbits/s speed=0.00801x elapsed=0:04:17.10    \nframe=  106 fps=0.4 q=46.0 size=     512KiB time=00:00:02.08 bitrate=2016.7kbits/s speed=0.00807x elapsed=0:04:17.61    \nframe=  106 fps=0.4 q=46.0 size=     512KiB time=00:00:02.08 bitrate=2016.7kbits/s speed=0.00806x elapsed=0:04:18.16    \nframe=  106 fps=0.4 q=46.0 size=     512KiB time=00:00:02.08 bitrate=2016.7kbits/s speed=0.00804x elapsed=0:04:18.73    \nframe=  106 fps=0.4 q=46.0 size=     512KiB time=00:00:02.08 bitrate=2016.7kbits/s speed=0.00802x elapsed=0:04:19.29    \nframe=  106 fps=0.4 q=46.0 size=     512KiB time=00:00:02.08 bitrate=2016.7kbits/s speed=0.008x elapsed=0:04:19.87    \nframe=  106 fps=0.4 q=46.0 size=     512KiB time=00:00:02.08 bitrate=2016.7kbits/s speed=0.00799x elapsed=0:04:20.41    \nframe=  107 fps=0.4 q=46.2 size=     512KiB time=00:00:02.10 bitrate=1997.5kbits/s speed=0.00805x elapsed=0:04:20.94    \nframe=  108 fps=0.4 q=46.4 size=     512KiB time=00:00:02.12 bitrate=1978.6kbits/s speed=0.00811x elapsed=0:04:21.51    \nframe=  108 fps=0.4 q=46.4 size=     512KiB time=00:00:02.12 bitrate=1978.6kbits/s speed=0.00809x elapsed=0:04:22.10    \nframe=  108 fps=0.4 q=46.4 size=     512KiB time=00:00:02.12 bitrate=1978.6kbits/s speed=0.00807x elapsed=0:04:22.66    \nframe=  108 fps=0.4 q=46.4 size=     512KiB time=00:00:02.12 bitrate=1978.6kbits/s speed=0.00805x elapsed=0:04:23.19    \nframe=  108 fps=0.4 q=46.4 size=     512KiB time=00:00:02.12 bitrate=1978.6kbits/s speed=0.00804x elapsed=0:04:23.71    \nframe=  109 fps=0.4 q=39.7 size=     512KiB time=00:00:02.14 bitrate=1960.1kbits/s speed=0.0081x elapsed=0:04:24.23    \nframe=  109 fps=0.4 q=39.7 size=     512KiB time=00:00:02.14 bitrate=1960.1kbits/s speed=0.00808x elapsed=0:04:24.77    \nframe=  109 fps=0.4 q=39.7 size=     512KiB time=00:00:02.14 bitrate=1960.1kbits/s speed=0.00807x elapsed=0:04:25.32    \nframe=  109 fps=0.4 q=39.7 size=     512KiB time=00:00:02.14 bitrate=1960.1kbits/s speed=0.00805x elapsed=0:04:25.87    \nframe=  110 fps=0.4 q=44.0 size=     512KiB time=00:00:02.16 bitrate=1942.0kbits/s speed=0.00811x elapsed=0:04:26.41    \nframe=  110 fps=0.4 q=44.0 size=     512KiB time=00:00:02.16 bitrate=1942.0kbits/s speed=0.00809x elapsed=0:04:26.96    \nframe=  110 fps=0.4 q=44.0 size=     512KiB time=00:00:02.16 bitrate=1942.0kbits/s speed=0.00807x elapsed=0:04:27.54    \nframe=  110 fps=0.4 q=44.0 size=     512KiB time=00:00:02.16 bitrate=1942.0kbits/s speed=0.00806x elapsed=0:04:28.10    \nframe=  110 fps=0.4 q=44.0 size=     512KiB time=00:00:02.16 bitrate=1942.0kbits/s speed=0.00804x elapsed=0:04:28.66    \nframe=  110 fps=0.4 q=44.0 size=     512KiB time=00:00:02.16 bitrate=1942.0kbits/s speed=0.00802x elapsed=0:04:29.27    \nframe=  110 fps=0.4 q=44.0 size=     512KiB time=00:00:02.16 bitrate=1942.0kbits/s speed=0.008x elapsed=0:04:29.84    \nframe=  111 fps=0.4 q=46.5 size=     512KiB time=00:00:02.18 bitrate=1924.2kbits/s speed=0.00806x elapsed=0:04:30.36    \nframe=  111 fps=0.4 q=46.5 size=     512KiB time=00:00:02.18 bitrate=1924.2kbits/s speed=0.00805x elapsed=0:04:30.87    \nframe=  111 fps=0.4 q=46.5 size=     512KiB time=00:00:02.18 bitrate=1924.2kbits/s speed=0.00803x elapsed=0:04:31.39    \nframe=  111 fps=0.4 q=46.5 size=     512KiB time=00:00:02.18 bitrate=1924.2kbits/s speed=0.00802x elapsed=0:04:31.94    \nframe=  112 fps=0.4 q=46.5 size=     512KiB time=00:00:02.20 bitrate=1906.7kbits/s speed=0.00807x elapsed=0:04:32.45    \nframe=  112 fps=0.4 q=46.5 size=     512KiB time=00:00:02.20 bitrate=1906.7kbits/s speed=0.00806x elapsed=0:04:32.96    \nframe=  112 fps=0.4 q=46.5 size=     512KiB time=00:00:02.20 bitrate=1906.7kbits/s speed=0.00804x elapsed=0:04:33.48    \nframe=  112 fps=0.4 q=46.5 size=     512KiB time=00:00:02.20 bitrate=1906.7kbits/s speed=0.00803x elapsed=0:04:34.07    \nframe=  112 fps=0.4 q=46.5 size=     512KiB time=00:00:02.20 bitrate=1906.7kbits/s speed=0.00801x elapsed=0:04:34.67    \nframe=  112 fps=0.4 q=46.5 size=     512KiB time=00:00:02.20 bitrate=1906.7kbits/s speed=0.00799x elapsed=0:04:35.24    \nframe=  113 fps=0.4 q=39.7 size=     512KiB time=00:00:02.22 bitrate=1889.5kbits/s speed=0.00805x elapsed=0:04:35.82    \nframe=  113 fps=0.4 q=39.7 size=     512KiB time=00:00:02.22 bitrate=1889.5kbits/s speed=0.00803x elapsed=0:04:36.43    \nframe=  113 fps=0.4 q=39.7 size=     512KiB time=00:00:02.22 bitrate=1889.5kbits/s speed=0.00801x elapsed=0:04:37.05    \nframe=  114 fps=0.4 q=43.8 size=     512KiB time=00:00:02.24 bitrate=1872.6kbits/s speed=0.00807x elapsed=0:04:37.57    \nframe=  114 fps=0.4 q=43.8 size=     512KiB time=00:00:02.24 bitrate=1872.6kbits/s speed=0.00805x elapsed=0:04:38.12    \nframe=  114 fps=0.4 q=43.8 size=     512KiB time=00:00:02.24 bitrate=1872.6kbits/s speed=0.00804x elapsed=0:04:38.72    \nframe=  114 fps=0.4 q=43.8 size=     512KiB time=00:00:02.24 bitrate=1872.6kbits/s speed=0.00802x elapsed=0:04:39.25    \nframe=  114 fps=0.4 q=43.8 size=     512KiB time=00:00:02.24 bitrate=1872.6kbits/s speed=0.00801x elapsed=0:04:39.77    \nframe=  114 fps=0.4 q=43.8 size=     512KiB time=00:00:02.24 bitrate=1872.6kbits/s speed=0.00799x elapsed=0:04:40.30    \nframe=  114 fps=0.4 q=43.8 size=     512KiB time=00:00:02.24 bitrate=1872.6kbits/s speed=0.00798x elapsed=0:04:40.87    \nframe=  115 fps=0.4 q=46.7 size=     512KiB time=00:00:02.26 bitrate=1856.0kbits/s speed=0.00803x elapsed=0:04:41.41    \nframe=  116 fps=0.4 q=46.7 size=     512KiB time=00:00:02.28 bitrate=1839.8kbits/s speed=0.00809x elapsed=0:04:41.94    \nframe=  116 fps=0.4 q=46.7 size=     512KiB time=00:00:02.28 bitrate=1839.8kbits/s speed=0.00807x elapsed=0:04:42.49    \nframe=  116 fps=0.4 q=46.7 size=     512KiB time=00:00:02.28 bitrate=1839.8kbits/s speed=0.00806x elapsed=0:04:43.03    \nframe=  116 fps=0.4 q=46.7 size=     512KiB time=00:00:02.28 bitrate=1839.8kbits/s speed=0.00804x elapsed=0:04:43.58    \nframe=  116 fps=0.4 q=46.7 size=     512KiB time=00:00:02.28 bitrate=1839.8kbits/s speed=0.00802x elapsed=0:04:44.14    \nframe=  116 fps=0.4 q=46.7 size=     512KiB time=00:00:02.28 bitrate=1839.8kbits/s speed=0.00801x elapsed=0:04:44.69    \nframe=  116 fps=0.4 q=46.7 size=     512KiB time=00:00:02.28 bitrate=1839.8kbits/s speed=0.00799x elapsed=0:04:45.23    \nframe=  117 fps=0.4 q=39.8 size=     512KiB time=00:00:02.30 bitrate=1823.8kbits/s speed=0.00805x elapsed=0:04:45.75    \nframe=  117 fps=0.4 q=39.8 size=     512KiB time=00:00:02.30 bitrate=1823.8kbits/s speed=0.00803x elapsed=0:04:46.28    \nframe=  117 fps=0.4 q=39.8 size=     512KiB time=00:00:02.30 bitrate=1823.8kbits/s speed=0.00802x elapsed=0:04:46.84    \nframe=  118 fps=0.4 q=44.2 size=     512KiB time=00:00:02.32 bitrate=1808.0kbits/s speed=0.00807x elapsed=0:04:47.43    \nframe=  118 fps=0.4 q=44.2 size=     512KiB time=00:00:02.32 bitrate=1808.0kbits/s speed=0.00805x elapsed=0:04:48.03    \nframe=  118 fps=0.4 q=44.2 size=     512KiB time=00:00:02.32 bitrate=1808.0kbits/s speed=0.00804x elapsed=0:04:48.62    \nframe=  118 fps=0.4 q=44.2 size=     512KiB time=00:00:02.32 bitrate=1808.0kbits/s speed=0.00802x elapsed=0:04:49.18    \nframe=  118 fps=0.4 q=44.2 size=     512KiB time=00:00:02.32 bitrate=1808.0kbits/s speed=0.00801x elapsed=0:04:49.70    \nframe=  119 fps=0.4 q=46.7 size=     512KiB time=00:00:02.34 bitrate=1792.6kbits/s speed=0.00806x elapsed=0:04:50.22    \nframe=  119 fps=0.4 q=46.7 size=     512KiB time=00:00:02.34 bitrate=1792.6kbits/s speed=0.00805x elapsed=0:04:50.75    \nframe=  119 fps=0.4 q=46.7 size=     512KiB time=00:00:02.34 bitrate=1792.6kbits/s speed=0.00803x elapsed=0:04:51.32    \nframe=  120 fps=0.4 q=46.7 size=     512KiB time=00:00:02.36 bitrate=1777.4kbits/s speed=0.00809x elapsed=0:04:51.88    \nframe=  120 fps=0.4 q=46.7 size=     512KiB time=00:00:02.36 bitrate=1777.4kbits/s speed=0.00807x elapsed=0:04:52.44    \nframe=  121 fps=0.4 q=39.6 size=     512KiB time=00:00:02.38 bitrate=1762.5kbits/s speed=0.00812x elapsed=0:04:52.97    \nframe=  122 fps=0.4 q=43.8 size=     512KiB time=00:00:02.40 bitrate=1747.8kbits/s speed=0.00818x elapsed=0:04:53.50    \nframe=  122 fps=0.4 q=43.8 size=     512KiB time=00:00:02.40 bitrate=1747.8kbits/s speed=0.00816x elapsed=0:04:54.05    \nframe=  122 fps=0.4 q=43.8 size=     512KiB time=00:00:02.40 bitrate=1747.8kbits/s speed=0.00815x elapsed=0:04:54.60    \nframe=  122 fps=0.4 q=43.8 size=     512KiB time=00:00:02.40 bitrate=1747.8kbits/s speed=0.00813x elapsed=0:04:55.18    \nframe=  122 fps=0.4 q=43.8 size=     512KiB time=00:00:02.40 bitrate=1747.8kbits/s speed=0.00811x elapsed=0:04:55.75    \nframe=  122 fps=0.4 q=43.8 size=     512KiB time=00:00:02.40 bitrate=1747.8kbits/s speed=0.0081x elapsed=0:04:56.30    \nframe=  123 fps=0.4 q=46.6 size=     512KiB time=00:00:02.42 bitrate=1733.3kbits/s speed=0.00815x elapsed=0:04:56.83    \nframe=  123 fps=0.4 q=46.6 size=     512KiB time=00:00:02.42 bitrate=1733.3kbits/s speed=0.00814x elapsed=0:04:57.39    \nframe=  124 fps=0.4 q=46.7 size=     512KiB time=00:00:02.44 bitrate=1719.1kbits/s speed=0.00819x elapsed=0:04:57.95    \nframe=  124 fps=0.4 q=46.7 size=     512KiB time=00:00:02.44 bitrate=1719.1kbits/s speed=0.00817x elapsed=0:04:58.52    \nframe=  124 fps=0.4 q=46.7 size=     512KiB time=00:00:02.44 bitrate=1719.1kbits/s speed=0.00816x elapsed=0:04:59.06    \nframe=  124 fps=0.4 q=46.7 size=     512KiB time=00:00:02.44 bitrate=1719.1kbits/s speed=0.00814x elapsed=0:04:59.58    \nframe=  125 fps=0.4 q=39.5 size=     512KiB time=00:00:02.46 bitrate=1705.1kbits/s speed=0.0082x elapsed=0:05:00.12    \nframe=  125 fps=0.4 q=39.5 size=     512KiB time=00:00:02.46 bitrate=1705.1kbits/s speed=0.00818x elapsed=0:05:00.65    \nframe=  125 fps=0.4 q=39.5 size=     512KiB time=00:00:02.46 bitrate=1705.1kbits/s speed=0.00817x elapsed=0:05:01.19    \nframe=  125 fps=0.4 q=39.5 size=     512KiB time=00:00:02.46 bitrate=1705.1kbits/s speed=0.00815x elapsed=0:05:01.71    \nframe=  126 fps=0.4 q=44.1 size=     768KiB time=00:00:02.48 bitrate=2537.0kbits/s speed=0.00821x elapsed=0:05:02.23    \nframe=  126 fps=0.4 q=44.1 size=     768KiB time=00:00:02.48 bitrate=2537.0kbits/s speed=0.00819x elapsed=0:05:02.79    \nframe=  126 fps=0.4 q=44.1 size=     768KiB time=00:00:02.48 bitrate=2537.0kbits/s speed=0.00818x elapsed=0:05:03.31    \nframe=  126 fps=0.4 q=44.1 size=     768KiB time=00:00:02.48 bitrate=2537.0kbits/s speed=0.00816x elapsed=0:05:03.84    \nframe=  127 fps=0.4 q=46.6 size=     768KiB time=00:00:02.50 bitrate=2516.7kbits/s speed=0.00821x elapsed=0:05:04.36    \nframe=  128 fps=0.4 q=46.7 size=     768KiB time=00:00:02.52 bitrate=2496.7kbits/s speed=0.00827x elapsed=0:05:04.88    \nframe=  128 fps=0.4 q=46.7 size=     768KiB time=00:00:02.52 bitrate=2496.7kbits/s speed=0.00825x elapsed=0:05:05.39    \nframe=  129 fps=0.4 q=39.6 size=     768KiB time=00:00:02.54 bitrate=2477.1kbits/s speed=0.0083x elapsed=0:05:05.90    \nframe=  129 fps=0.4 q=39.6 size=     768KiB time=00:00:02.54 bitrate=2477.1kbits/s speed=0.00829x elapsed=0:05:06.43    \nframe=  130 fps=0.4 q=44.7 size=     768KiB time=00:00:02.56 bitrate=2457.7kbits/s speed=0.00834x elapsed=0:05:06.95    \nframe=  131 fps=0.4 q=46.6 size=     768KiB time=00:00:02.58 bitrate=2438.7kbits/s speed=0.00839x elapsed=0:05:07.47    \nframe=  131 fps=0.4 q=46.6 size=     768KiB time=00:00:02.58 bitrate=2438.7kbits/s speed=0.00838x elapsed=0:05:07.99    \nframe=  132 fps=0.4 q=46.6 size=     768KiB time=00:00:02.60 bitrate=2419.9kbits/s speed=0.00843x elapsed=0:05:08.51    \nframe=  133 fps=0.4 q=46.6 size=     768KiB time=00:00:02.62 bitrate=2401.5kbits/s speed=0.00848x elapsed=0:05:09.01    \nframe=  133 fps=0.4 q=46.6 size=     768KiB time=00:00:02.62 bitrate=2401.5kbits/s speed=0.00846x elapsed=0:05:09.53    \nframe=  134 fps=0.4 q=39.5 size=     768KiB time=00:00:02.64 bitrate=2383.3kbits/s speed=0.00851x elapsed=0:05:10.06    \nframe=  135 fps=0.4 q=43.8 size=     768KiB time=00:00:02.66 bitrate=2365.3kbits/s speed=0.00856x elapsed=0:05:10.58    \nframe=  135 fps=0.4 q=43.8 size=     768KiB time=00:00:02.66 bitrate=2365.3kbits/s speed=0.00855x elapsed=0:05:11.11    \nframe=  135 fps=0.4 q=43.8 size=     768KiB time=00:00:02.66 bitrate=2365.3kbits/s speed=0.00854x elapsed=0:05:11.62    \nframe=  136 fps=0.4 q=45.9 size=     768KiB time=00:00:02.68 bitrate=2347.7kbits/s speed=0.00859x elapsed=0:05:12.15    \nframe=  137 fps=0.4 q=46.6 size=     768KiB time=00:00:02.70 bitrate=2330.3kbits/s speed=0.00863x elapsed=0:05:12.68    \nframe=  137 fps=0.4 q=46.6 size=     768KiB time=00:00:02.70 bitrate=2330.3kbits/s speed=0.00862x elapsed=0:05:13.19    \nframe=  138 fps=0.4 q=39.6 size=     768KiB time=00:00:02.72 bitrate=2313.2kbits/s speed=0.00867x elapsed=0:05:13.71    \nframe=  138 fps=0.4 q=39.6 size=     768KiB time=00:00:02.72 bitrate=2313.2kbits/s speed=0.00866x elapsed=0:05:14.25    \nframe=  139 fps=0.4 q=43.9 size=     768KiB time=00:00:02.74 bitrate=2296.3kbits/s speed=0.0087x elapsed=0:05:14.77    \nframe=  139 fps=0.4 q=43.9 size=     768KiB time=00:00:02.74 bitrate=2296.3kbits/s speed=0.00869x elapsed=0:05:15.30    \nframe=  140 fps=0.4 q=45.9 size=     768KiB time=00:00:02.76 bitrate=2279.6kbits/s speed=0.00874x elapsed=0:05:15.82    \nframe=  141 fps=0.4 q=45.9 size=     768KiB time=00:00:02.78 bitrate=2263.2kbits/s speed=0.00879x elapsed=0:05:16.34    \nframe=  141 fps=0.4 q=45.9 size=     768KiB time=00:00:02.78 bitrate=2263.2kbits/s speed=0.00877x elapsed=0:05:16.87    \nframe=  142 fps=0.4 q=39.6 size=     768KiB time=00:00:02.80 bitrate=2247.1kbits/s speed=0.00882x elapsed=0:05:17.40    \nframe=  143 fps=0.4 q=44.6 size=     768KiB time=00:00:02.82 bitrate=2231.1kbits/s speed=0.00887x elapsed=0:05:17.92    \nframe=  143 fps=0.4 q=44.6 size=     768KiB time=00:00:02.82 bitrate=2231.1kbits/s speed=0.00886x elapsed=0:05:18.44    \nframe=  144 fps=0.5 q=45.8 size=     768KiB time=00:00:02.84 bitrate=2215.4kbits/s speed=0.0089x elapsed=0:05:18.97    \nframe=  144 fps=0.5 q=45.8 size=     768KiB time=00:00:02.84 bitrate=2215.4kbits/s speed=0.00889x elapsed=0:05:19.50    \nframe=  145 fps=0.5 q=45.7 size=     768KiB time=00:00:02.86 bitrate=2199.9kbits/s speed=0.00894x elapsed=0:05:20.02    \nframe=  146 fps=0.5 q=45.9 size=     768KiB time=00:00:02.88 bitrate=2184.7kbits/s speed=0.00898x elapsed=0:05:20.54    \nframe=  147 fps=0.5 q=39.6 size=     768KiB time=00:00:02.90 bitrate=2169.6kbits/s speed=0.00903x elapsed=0:05:21.07    \nframe=  147 fps=0.5 q=39.6 size=     768KiB time=00:00:02.90 bitrate=2169.6kbits/s speed=0.00902x elapsed=0:05:21.58    \nframe=  148 fps=0.5 q=41.3 size=     768KiB time=00:00:02.92 bitrate=2154.7kbits/s speed=0.00907x elapsed=0:05:22.10    \nframe=  148 fps=0.5 q=41.3 size=     768KiB time=00:00:02.92 bitrate=2154.7kbits/s speed=0.00905x elapsed=0:05:22.63    \nframe=  148 fps=0.5 q=41.3 size=     768KiB time=00:00:02.92 bitrate=2154.7kbits/s speed=0.00904x elapsed=0:05:23.16    \nframe=  149 fps=0.5 q=45.7 size=     768KiB time=00:00:02.94 bitrate=2140.1kbits/s speed=0.00908x elapsed=0:05:23.70    \nframe=  150 fps=0.5 q=45.5 size=     768KiB time=00:00:02.96 bitrate=2125.6kbits/s speed=0.00913x elapsed=0:05:24.24    \nframe=  151 fps=0.5 q=46.4 size=     768KiB time=00:00:02.98 bitrate=2111.3kbits/s speed=0.00918x elapsed=0:05:24.76    \nframe=  151 fps=0.5 q=46.4 size=     768KiB time=00:00:02.98 bitrate=2111.3kbits/s speed=0.00916x elapsed=0:05:25.32    \nframe=  152 fps=0.5 q=39.6 size=     768KiB time=00:00:03.00 bitrate=2097.3kbits/s speed=0.00921x elapsed=0:05:25.86    \nframe=  152 fps=0.5 q=39.6 size=     768KiB time=00:00:03.00 bitrate=2097.3kbits/s speed=0.00919x elapsed=0:05:26.40    \nframe=  153 fps=0.5 q=44.8 size=     768KiB time=00:00:03.02 bitrate=2083.4kbits/s speed=0.00924x elapsed=0:05:26.93    \nframe=  153 fps=0.5 q=44.8 size=     768KiB time=00:00:03.02 bitrate=2083.4kbits/s speed=0.00922x elapsed=0:05:27.47    \nframe=  154 fps=0.5 q=46.3 size=     768KiB time=00:00:03.04 bitrate=2069.7kbits/s speed=0.00927x elapsed=0:05:27.99    \nframe=  155 fps=0.5 q=46.4 size=     768KiB time=00:00:03.06 bitrate=2056.1kbits/s speed=0.00932x elapsed=0:05:28.50    \nframe=  155 fps=0.5 q=46.4 size=     768KiB time=00:00:03.06 bitrate=2056.1kbits/s speed=0.0093x elapsed=0:05:29.02    \nframe=  156 fps=0.5 q=46.7 size=     768KiB time=00:00:03.08 bitrate=2042.8kbits/s speed=0.00935x elapsed=0:05:29.54    \nframe=  157 fps=0.5 q=39.4 size=     768KiB time=00:00:03.10 bitrate=2029.6kbits/s speed=0.00939x elapsed=0:05:30.05    \nframe=  158 fps=0.5 q=43.9 size=     768KiB time=00:00:03.12 bitrate=2016.6kbits/s speed=0.00944x elapsed=0:05:30.57    \nframe=  158 fps=0.5 q=43.9 size=     768KiB time=00:00:03.12 bitrate=2016.6kbits/s speed=0.00942x elapsed=0:05:31.07    \nframe=  158 fps=0.5 q=43.9 size=     768KiB time=00:00:03.12 bitrate=2016.6kbits/s speed=0.00941x elapsed=0:05:31.60    \nframe=  159 fps=0.5 q=45.6 size=     768KiB time=00:00:03.14 bitrate=2003.8kbits/s speed=0.00945x elapsed=0:05:32.12    \nframe=  160 fps=0.5 q=45.8 size=     768KiB time=00:00:03.16 bitrate=1991.1kbits/s speed=0.0095x elapsed=0:05:32.64    \nframe=  160 fps=0.5 q=45.8 size=     768KiB time=00:00:03.16 bitrate=1991.1kbits/s speed=0.00948x elapsed=0:05:33.15    \nframe=  161 fps=0.5 q=39.5 size=     768KiB time=00:00:03.18 bitrate=1978.6kbits/s speed=0.00953x elapsed=0:05:33.67    \nframe=  162 fps=0.5 q=43.9 size=     768KiB time=00:00:03.20 bitrate=1966.2kbits/s speed=0.00958x elapsed=0:05:34.19    \nframe=  163 fps=0.5 q=45.9 size=     768KiB time=00:00:03.22 bitrate=1954.0kbits/s speed=0.00962x elapsed=0:05:34.71    \nframe=  164 fps=0.5 q=45.9 size=     768KiB time=00:00:03.24 bitrate=1941.9kbits/s speed=0.00966x elapsed=0:05:35.23    \nframe=  165 fps=0.5 q=39.5 size=     768KiB time=00:00:03.26 bitrate=1930.0kbits/s speed=0.00971x elapsed=0:05:35.76    \nframe=  165 fps=0.5 q=39.5 size=     768KiB time=00:00:03.26 bitrate=1930.0kbits/s speed=0.00969x elapsed=0:05:36.29    \nframe=  166 fps=0.5 q=43.9 size=     768KiB time=00:00:03.28 bitrate=1918.2kbits/s speed=0.00974x elapsed=0:05:36.79    \nframe=  167 fps=0.5 q=46.1 size=     768KiB time=00:00:03.30 bitrate=1906.6kbits/s speed=0.00978x elapsed=0:05:37.35    \nframe=  168 fps=0.5 q=46.5 size=     768KiB time=00:00:03.32 bitrate=1895.1kbits/s speed=0.00983x elapsed=0:05:37.87    \nframe=  168 fps=0.5 q=46.5 size=     768KiB time=00:00:03.32 bitrate=1895.1kbits/s speed=0.00981x elapsed=0:05:38.39    \nframe=  170 fps=0.5 q=43.8 size=    1024KiB time=00:00:03.36 bitrate=2496.7kbits/s speed=0.00991x elapsed=0:05:38.93    \nframe=  170 fps=0.5 q=43.8 size=    1024KiB time=00:00:03.36 bitrate=2496.7kbits/s speed=0.0099x elapsed=0:05:39.44    \nframe=  171 fps=0.5 q=45.9 size=    1024KiB time=00:00:03.38 bitrate=2481.9kbits/s speed=0.00994x elapsed=0:05:39.98    \nframe=  172 fps=0.5 q=46.5 size=    1024KiB time=00:00:03.40 bitrate=2467.3kbits/s speed=0.00999x elapsed=0:05:40.50    \nframe=  173 fps=0.5 q=39.5 size=    1024KiB time=00:00:03.42 bitrate=2452.9kbits/s speed=0.01x elapsed=0:05:41.02    \nframe=  173 fps=0.5 q=39.5 size=    1024KiB time=00:00:03.42 bitrate=2452.9kbits/s speed=0.01x elapsed=0:05:41.53    \nframe=  174 fps=0.5 q=44.0 size=    1024KiB time=00:00:03.44 bitrate=2438.7kbits/s speed=0.0101x elapsed=0:05:42.05    \nframe=  174 fps=0.5 q=44.0 size=    1024KiB time=00:00:03.44 bitrate=2438.7kbits/s speed=0.01x elapsed=0:05:42.60    \nframe=  175 fps=0.5 q=45.9 size=    1024KiB time=00:00:03.46 bitrate=2424.6kbits/s speed=0.0101x elapsed=0:05:43.13    \nframe=  176 fps=0.5 q=46.5 size=    1024KiB time=00:00:03.48 bitrate=2410.6kbits/s speed=0.0101x elapsed=0:05:43.65    \nframe=  176 fps=0.5 q=46.5 size=    1024KiB time=00:00:03.48 bitrate=2410.6kbits/s speed=0.0101x elapsed=0:05:44.18    \nframe=  177 fps=0.5 q=39.4 size=    1024KiB time=00:00:03.50 bitrate=2396.8kbits/s speed=0.0102x elapsed=0:05:44.70    \nframe=  178 fps=0.5 q=43.6 size=    1024KiB time=00:00:03.52 bitrate=2383.2kbits/s speed=0.0102x elapsed=0:05:45.23    \nframe=  178 fps=0.5 q=43.6 size=    1024KiB time=00:00:03.52 bitrate=2383.2kbits/s speed=0.0102x elapsed=0:05:45.73    \nframe=  179 fps=0.5 q=46.1 size=    1024KiB time=00:00:03.54 bitrate=2369.8kbits/s speed=0.0102x elapsed=0:05:46.25    \nframe=  180 fps=0.5 q=46.5 size=    1024KiB time=00:00:03.56 bitrate=2356.4kbits/s speed=0.0103x elapsed=0:05:46.77    \nframe=  180 fps=0.5 q=46.5 size=    1024KiB time=00:00:03.56 bitrate=2356.4kbits/s speed=0.0103x elapsed=0:05:47.29    \nframe=  181 fps=0.5 q=39.5 size=    1024KiB time=00:00:03.58 bitrate=2343.3kbits/s speed=0.0103x elapsed=0:05:47.81    \nframe=  182 fps=0.5 q=43.6 size=    1024KiB time=00:00:03.60 bitrate=2330.3kbits/s speed=0.0103x elapsed=0:05:48.33    \nframe=  183 fps=0.5 q=45.9 size=    1024KiB time=00:00:03.62 bitrate=2317.4kbits/s speed=0.0104x elapsed=0:05:48.85    \nframe=  184 fps=0.5 q=46.3 size=    1024KiB time=00:00:03.64 bitrate=2304.7kbits/s speed=0.0104x elapsed=0:05:49.36    \nframe=  184 fps=0.5 q=46.3 size=    1024KiB time=00:00:03.64 bitrate=2304.7kbits/s speed=0.0104x elapsed=0:05:49.88    \nframe=  185 fps=0.5 q=39.5 size=    1024KiB time=00:00:03.66 bitrate=2292.1kbits/s speed=0.0104x elapsed=0:05:50.39    \nframe=  186 fps=0.5 q=43.7 size=    1024KiB time=00:00:03.68 bitrate=2279.6kbits/s speed=0.0105x elapsed=0:05:50.91    \nframe=  186 fps=0.5 q=43.7 size=    1024KiB time=00:00:03.68 bitrate=2279.6kbits/s speed=0.0105x elapsed=0:05:51.42    \nframe=  188 fps=0.5 q=46.3 size=    1024KiB time=00:00:03.72 bitrate=2255.1kbits/s speed=0.0106x elapsed=0:05:51.94    \nframe=  188 fps=0.5 q=46.3 size=    1024KiB time=00:00:03.72 bitrate=2255.1kbits/s speed=0.0106x elapsed=0:05:52.46    \nframe=  189 fps=0.5 q=39.6 size=    1024KiB time=00:00:03.74 bitrate=2243.0kbits/s speed=0.0106x elapsed=0:05:52.96    \nframe=  190 fps=0.5 q=43.8 size=    1024KiB time=00:00:03.76 bitrate=2231.1kbits/s speed=0.0106x elapsed=0:05:53.49    \nframe=  191 fps=0.5 q=46.3 size=    1024KiB time=00:00:03.78 bitrate=2219.3kbits/s speed=0.0107x elapsed=0:05:54.01    \nframe=  191 fps=0.5 q=46.3 size=    1024KiB time=00:00:03.78 bitrate=2219.3kbits/s speed=0.0107x elapsed=0:05:54.53    \nframe=  192 fps=0.5 q=46.5 size=    1024KiB time=00:00:03.80 bitrate=2207.6kbits/s speed=0.0107x elapsed=0:05:55.06    \nframe=  194 fps=0.5 q=43.9 size=    1024KiB time=00:00:03.84 bitrate=2184.6kbits/s speed=0.0108x elapsed=0:05:55.57    \nframe=  194 fps=0.5 q=43.9 size=    1024KiB time=00:00:03.84 bitrate=2184.6kbits/s speed=0.0108x elapsed=0:05:56.07    \nframe=  196 fps=0.5 q=46.3 size=    1024KiB time=00:00:03.88 bitrate=2162.1kbits/s speed=0.0109x elapsed=0:05:56.60    \nframe=  196 fps=0.5 q=46.3 size=    1024KiB time=00:00:03.88 bitrate=2162.1kbits/s speed=0.0109x elapsed=0:05:57.12    \nframe=  197 fps=0.6 q=39.4 size=    1024KiB time=00:00:03.90 bitrate=2151.0kbits/s speed=0.0109x elapsed=0:05:57.64    \nframe=  198 fps=0.6 q=44.0 size=    1024KiB time=00:00:03.92 bitrate=2140.0kbits/s speed=0.0109x elapsed=0:05:58.16    \nframe=  198 fps=0.6 q=44.0 size=    1024KiB time=00:00:03.92 bitrate=2140.0kbits/s speed=0.0109x elapsed=0:05:58.68    \nframe=  199 fps=0.6 q=46.5 size=    1024KiB time=00:00:03.94 bitrate=2129.2kbits/s speed=0.011x elapsed=0:05:59.19    \nframe=  200 fps=0.6 q=46.5 size=    1024KiB time=00:00:03.96 bitrate=2118.4kbits/s speed=0.011x elapsed=0:05:59.71    \nframe=  202 fps=0.6 q=43.8 size=    1024KiB time=00:00:04.00 bitrate=2097.2kbits/s speed=0.0111x elapsed=0:06:00.22    \nframe=  202 fps=0.6 q=43.8 size=    1024KiB time=00:00:04.00 bitrate=2097.2kbits/s speed=0.0111x elapsed=0:06:00.73    \nframe=  203 fps=0.6 q=46.6 size=    1024KiB time=00:00:04.02 bitrate=2086.8kbits/s speed=0.0111x elapsed=0:06:01.26    \nframe=  203 fps=0.6 q=46.6 size=    1024KiB time=00:00:04.02 bitrate=2086.8kbits/s speed=0.0111x elapsed=0:06:01.79    \nframe=  204 fps=0.6 q=46.5 size=    1024KiB time=00:00:04.04 bitrate=2076.5kbits/s speed=0.0112x elapsed=0:06:02.29    \nframe=  205 fps=0.6 q=39.6 size=    1024KiB time=00:00:04.06 bitrate=2066.2kbits/s speed=0.0112x elapsed=0:06:02.81    \nframe=  206 fps=0.6 q=43.8 size=    1024KiB time=00:00:04.08 bitrate=2056.1kbits/s speed=0.0112x elapsed=0:06:03.32    \nframe=  206 fps=0.6 q=43.8 size=    1024KiB time=00:00:04.08 bitrate=2056.1kbits/s speed=0.0112x elapsed=0:06:03.84    \nframe=  206 fps=0.6 q=43.8 size=    1024KiB time=00:00:04.08 bitrate=2056.1kbits/s speed=0.0112x elapsed=0:06:04.36    \nframe=  207 fps=0.6 q=46.6 size=    1024KiB time=00:00:04.10 bitrate=2046.1kbits/s speed=0.0112x elapsed=0:06:04.88    \nframe=  208 fps=0.6 q=46.7 size=    1024KiB time=00:00:04.12 bitrate=2036.2kbits/s speed=0.0113x elapsed=0:06:05.41    \nframe=  209 fps=0.6 q=39.5 size=    1024KiB time=00:00:04.14 bitrate=2026.3kbits/s speed=0.0113x elapsed=0:06:05.93    \nframe=  210 fps=0.6 q=43.9 size=    1280KiB time=00:00:04.16 bitrate=2520.7kbits/s speed=0.0114x elapsed=0:06:06.46    \nframe=  210 fps=0.6 q=43.9 size=    1280KiB time=00:00:04.16 bitrate=2520.7kbits/s speed=0.0113x elapsed=0:06:06.99    \nframe=  210 fps=0.6 q=43.9 size=    1280KiB time=00:00:04.16 bitrate=2520.7kbits/s speed=0.0113x elapsed=0:06:07.50    \nframe=  211 fps=0.6 q=46.4 size=    1280KiB time=00:00:04.18 bitrate=2508.6kbits/s speed=0.0114x elapsed=0:06:08.02    \nframe=  212 fps=0.6 q=46.5 size=    1280KiB time=00:00:04.20 bitrate=2496.7kbits/s speed=0.0114x elapsed=0:06:08.54    \nframe=  212 fps=0.6 q=46.5 size=    1280KiB time=00:00:04.20 bitrate=2496.7kbits/s speed=0.0114x elapsed=0:06:09.09    \nframe=  213 fps=0.6 q=39.4 size=    1280KiB time=00:00:04.22 bitrate=2484.9kbits/s speed=0.0114x elapsed=0:06:09.61    \nframe=  214 fps=0.6 q=43.8 size=    1280KiB time=00:00:04.24 bitrate=2473.1kbits/s speed=0.0115x elapsed=0:06:10.14    \nframe=  214 fps=0.6 q=43.8 size=    1280KiB time=00:00:04.24 bitrate=2473.1kbits/s speed=0.0114x elapsed=0:06:10.66    \nframe=  214 fps=0.6 q=43.8 size=    1280KiB time=00:00:04.24 bitrate=2473.1kbits/s speed=0.0114x elapsed=0:06:11.21    \nframe=  214 fps=0.6 q=43.8 size=    1280KiB time=00:00:04.24 bitrate=2473.1kbits/s speed=0.0114x elapsed=0:06:11.75    \nframe=  214 fps=0.6 q=43.8 size=    1280KiB time=00:00:04.24 bitrate=2473.1kbits/s speed=0.0114x elapsed=0:06:12.36    \nframe=  214 fps=0.6 q=43.8 size=    1280KiB time=00:00:04.24 bitrate=2473.1kbits/s speed=0.0114x elapsed=0:06:12.93    \nframe=  215 fps=0.6 q=46.4 size=    1280KiB time=00:00:04.26 bitrate=2461.5kbits/s speed=0.0114x elapsed=0:06:13.47    \nframe=  217 fps=0.6 q=39.6 size=    1280KiB time=00:00:04.30 bitrate=2438.6kbits/s speed=0.0115x elapsed=0:06:14.02    \nframe=  217 fps=0.6 q=39.6 size=    1280KiB time=00:00:04.30 bitrate=2438.6kbits/s speed=0.0115x elapsed=0:06:14.55    \nframe=  218 fps=0.6 q=43.9 size=    1280KiB time=00:00:04.32 bitrate=2427.3kbits/s speed=0.0115x elapsed=0:06:15.07    \nframe=  219 fps=0.6 q=45.9 size=    1280KiB time=00:00:04.34 bitrate=2416.2kbits/s speed=0.0116x elapsed=0:06:15.59    \nframe=  219 fps=0.6 q=45.9 size=    1280KiB time=00:00:04.34 bitrate=2416.2kbits/s speed=0.0115x elapsed=0:06:16.11    \nframe=  220 fps=0.6 q=46.4 size=    1280KiB time=00:00:04.36 bitrate=2405.1kbits/s speed=0.0116x elapsed=0:06:16.65    \nframe=  221 fps=0.6 q=39.6 size=    1280KiB time=00:00:04.38 bitrate=2394.1kbits/s speed=0.0116x elapsed=0:06:17.15    \nframe=  222 fps=0.6 q=43.9 size=    1280KiB time=00:00:04.40 bitrate=2383.2kbits/s speed=0.0117x elapsed=0:06:17.67    \nframe=  222 fps=0.6 q=43.9 size=    1280KiB time=00:00:04.40 bitrate=2383.2kbits/s speed=0.0116x elapsed=0:06:18.21    \nframe=  224 fps=0.6 q=46.5 size=    1280KiB time=00:00:04.44 bitrate=2361.7kbits/s speed=0.0117x elapsed=0:06:18.73    \nframe=  225 fps=0.6 q=39.6 size=    1280KiB time=00:00:04.46 bitrate=2351.1kbits/s speed=0.0118x elapsed=0:06:19.25    \nframe=  225 fps=0.6 q=39.6 size=    1280KiB time=00:00:04.46 bitrate=2351.1kbits/s speed=0.0117x elapsed=0:06:19.76    \nframe=  226 fps=0.6 q=43.9 size=    1280KiB time=00:00:04.48 bitrate=2340.7kbits/s speed=0.0118x elapsed=0:06:20.28    \nframe=  227 fps=0.6 q=45.8 size=    1280KiB time=00:00:04.50 bitrate=2330.2kbits/s speed=0.0118x elapsed=0:06:20.80    \nframe=  227 fps=0.6 q=45.8 size=    1280KiB time=00:00:04.50 bitrate=2330.2kbits/s speed=0.0118x elapsed=0:06:21.32    \nframe=  228 fps=0.6 q=46.6 size=    1280KiB time=00:00:04.52 bitrate=2319.9kbits/s speed=0.0118x elapsed=0:06:21.84    \nframe=  229 fps=0.6 q=39.7 size=    1280KiB time=00:00:04.54 bitrate=2309.7kbits/s speed=0.0119x elapsed=0:06:22.37    \nframe=  230 fps=0.6 q=44.0 size=    1280KiB time=00:00:04.56 bitrate=2299.6kbits/s speed=0.0119x elapsed=0:06:22.92    \nframe=  231 fps=0.6 q=45.8 size=    1280KiB time=00:00:04.58 bitrate=2289.5kbits/s speed=0.0119x elapsed=0:06:23.44    \nframe=  232 fps=0.6 q=46.6 size=    1280KiB time=00:00:04.60 bitrate=2279.6kbits/s speed=0.012x elapsed=0:06:23.97    \nframe=  232 fps=0.6 q=46.6 size=    1280KiB time=00:00:04.60 bitrate=2279.6kbits/s speed=0.012x elapsed=0:06:24.50    \nframe=  233 fps=0.6 q=39.8 size=    1280KiB time=00:00:04.62 bitrate=2269.7kbits/s speed=0.012x elapsed=0:06:25.02    \nframe=  234 fps=0.6 q=44.0 size=    1280KiB time=00:00:04.64 bitrate=2259.9kbits/s speed=0.012x elapsed=0:06:25.54    \nframe=  235 fps=0.6 q=46.6 size=    1280KiB time=00:00:04.66 bitrate=2250.2kbits/s speed=0.0121x elapsed=0:06:26.04    \nframe=  235 fps=0.6 q=46.6 size=    1280KiB time=00:00:04.66 bitrate=2250.2kbits/s speed=0.0121x elapsed=0:06:26.57    \nframe=  235 fps=0.6 q=46.6 size=    1280KiB time=00:00:04.66 bitrate=2250.2kbits/s speed=0.012x elapsed=0:06:27.08    \nframe=  237 fps=0.6 q=40.0 size=    1280KiB time=00:00:04.70 bitrate=2231.1kbits/s speed=0.0121x elapsed=0:06:27.59    \nframe=  238 fps=0.6 q=44.0 size=    1280KiB time=00:00:04.72 bitrate=2221.6kbits/s speed=0.0122x elapsed=0:06:28.11    \nframe=  238 fps=0.6 q=44.0 size=    1280KiB time=00:00:04.72 bitrate=2221.6kbits/s speed=0.0121x elapsed=0:06:28.63    \nframe=  239 fps=0.6 q=45.8 size=    1280KiB time=00:00:04.74 bitrate=2212.3kbits/s speed=0.0122x elapsed=0:06:29.14    \nframe=  240 fps=0.6 q=46.5 size=    1280KiB time=00:00:04.76 bitrate=2203.0kbits/s speed=0.0122x elapsed=0:06:29.66    \nframe=  240 fps=0.6 q=46.5 size=    1280KiB time=00:00:04.76 bitrate=2203.0kbits/s speed=0.0122x elapsed=0:06:30.18    \nframe=  241 fps=0.6 q=40.6 size=    1280KiB time=00:00:04.78 bitrate=2193.7kbits/s speed=0.0122x elapsed=0:06:30.69    \nframe=  242 fps=0.6 q=44.7 size=    1280KiB time=00:00:04.80 bitrate=2184.6kbits/s speed=0.0123x elapsed=0:06:31.21    \nframe=  243 fps=0.6 q=46.0 size=    1280KiB time=00:00:04.82 bitrate=2175.5kbits/s speed=0.0123x elapsed=0:06:31.74    \nframe=  244 fps=0.6 q=46.4 size=    1280KiB time=00:00:04.84 bitrate=2166.6kbits/s speed=0.0123x elapsed=0:06:32.25    \nframe=  244 fps=0.6 q=46.4 size=    1280KiB time=00:00:04.84 bitrate=2166.6kbits/s speed=0.0123x elapsed=0:06:32.77    \nframe=  246 fps=0.6 q=43.1 size=    1280KiB time=00:00:04.88 bitrate=2148.8kbits/s speed=0.0124x elapsed=0:06:33.28    \nframe=  246 fps=0.6 q=43.1 size=    1280KiB time=00:00:04.88 bitrate=2148.8kbits/s speed=0.0124x elapsed=0:06:33.82    \nframe=  246 fps=0.6 q=43.1 size=    1280KiB time=00:00:04.88 bitrate=2148.8kbits/s speed=0.0124x elapsed=0:06:34.34    \nframe=  249 fps=0.6 q=42.6 size=    1280KiB time=00:00:04.94 bitrate=2122.7kbits/s speed=0.0125x elapsed=0:06:34.85    \n[mp4 @ 000001e60497aa40] Starting second pass: moving the moov atom to the beginning of the file\n[out#0/mp4 @ 000001e604a07d80] video:1505KiB audio:0KiB subtitle:0KiB other streams:0KiB global headers:2KiB muxing overhead: 0.425808%\nframe=  250 fps=0.6 q=43.2 Lsize=    1512KiB time=00:00:04.96 bitrate=2496.9kbits/s speed=0.0126x elapsed=0:06:35.19    \nx265 [info]: frame I:      1, Avg QP:42.34  kb/s: 9512.00 \nx265 [info]: frame P:     60, Avg QP:40.37  kb/s: 7123.65 \nx265 [info]: frame B:    189, Avg QP:45.33  kb/s: 948.60  \nx265 [info]: Weighted P-Frames: Y:0.0% UV:0.0%\n\nencoded 250 frames in 394.13s (0.63 fps), 2464.87 kb/s, Avg QP:44.13\n",
  "seconds": 395.5526568889618,
  "probe_out": {}
}